<?xml version="1.0" standalone="yes"?>
<svg xmlns="http://www.w3.org/2000/svg" width="400" height="395">
<path style="fill:#fefefe; stroke:none;" d="M0 0L0 395L400 395L400 0L0 0z"/>
<path style="fill:#9ea0a8; stroke:none;" d="M186.667 8.33334L187.333 8.66666L186.667 8.33334M217 8L216 12L217 12L217 8M181.667 9.33334L182.333 9.66666L181.667 9.33334z"/>
<path style="fill:#1091d0; stroke:none;" d="M177 11C183.931 20.8396 195.171 33.0572 205 40C207.941 24.2132 193.606 6.33359 177 11z"/>
<path style="fill:#5985bf; stroke:none;" d="M217 9L207 84C223.677 76.2017 221.116 46.3773 223.424 30C224.773 20.435 229.228 10.5898 217 9z"/>
<path style="fill:#9ea0a8; stroke:none;" d="M220.667 9.33334L221.333 9.66666L220.667 9.33334M177.667 10.3333L178.333 10.6667L177.667 10.3333M225 10L226 11L225 10z"/>
<path style="fill:#5985bf; stroke:none;" d="M190 11L191 12L190 11M191 12L192 13L191 12M192 13L193 14L192 13z"/>
<path style="fill:#9ea0a8; stroke:none;" d="M233.667 13.3333L234.333 13.6667L233.667 13.3333M167 14L168 15L167 14z"/>
<path style="fill:#1091d0; stroke:none;" d="M161 18C171.293 32.6253 187.38 50.7014 202 61L202.806 50L180.285 25L170 15.2407L161 18z"/>
<path style="fill:#9ea0a8; stroke:none;" d="M170 14L171 15L170 14z"/>
<path style="fill:#5985bf; stroke:none;" d="M193 14L194 15L193 14z"/>
<path style="fill:#9ea0a8; stroke:none;" d="M225 14L225 19L226 19L225 14z"/>
<path style="fill:#5985bf; stroke:none;" d="M233 14L225 73L234.682 66.6713L240.13 31L241.307 18.3904L233 14z"/>
<path style="fill:#9ea0a8; stroke:none;" d="M236 14L237 15L236 14M165 15L166 16L165 15M171 15L172 16L171 15M194 15L195 16L194 15M232 15L232 21L233 21L232 15M238 15L239 16L238 15M163 16L164 17L163 16M195 16L196 17L195 16M215 16L215 20L216 20L215 16M240 16L241 17L240 16M161 17L162 18L161 17M182 17L183 18L182 17M196 17L197 18L196 17M160 18L161 19L160 18M183 18L184 19L183 18M197 18L198 19L197 18M242 18L243 19L242 18M161 19L162 20L161 19M184 19L185 20L184 19M198 19L199 20L198 19M162 20L163 21L162 20M185 20L186 21L185 20M199 20L200 21L199 20M163 21L164 22L163 21M186 21L187 22L186 21M200 21L201 22L200 21M241 21L241 26L242 26L241 21M153 22L154 23L153 22z"/>
<path style="fill:#5985bf; stroke:none;" d="M154 22L156 24L154 22z"/>
<path style="fill:#9ea0a8; stroke:none;" d="M164 22L165 23L164 22M187 22L188 23L187 22M201 22L202 23L201 22M224 22L224 26L225 26L224 22z"/>
<path style="fill:#5985bf; stroke:none;" d="M249 22L244 62C257.766 55.5629 262.774 30.6232 249 22z"/>
<path style="fill:#9ea0a8; stroke:none;" d="M250 22L251 23L250 22z"/>
<path style="fill:#5985bf; stroke:none;" d="M152 23L153 24L152 23z"/>
<path style="fill:#1091d0; stroke:none;" d="M147 27L159.83 42L198 83C200.078 79.5313 201.419 73.7534 199.307 70C193.168 59.0919 180.532 50.2412 172.17 41C167.447 35.7809 162.349 28.0251 156 24.7122C152.679 22.9791 149.806 25.3456 147 27z"/>
<path style="fill:#9ea0a8; stroke:none;" d="M165 23L166 24L165 23M188 23L189 24L188 23M202 23L203 24L202 23M214 23L214 27L215 27L214 23M231 23L231 28L232 28L231 23M248 23L248 27L249 27L248 23M251 23L252 24L251 23M150 24L151 25L150 24M156 24L157 25L156 24z"/>
<path style="fill:#5985bf; stroke:none;" d="M166 24L167 25L166 24M179 24L180 25L179 24z"/>
<path style="fill:#9ea0a8; stroke:none;" d="M189 24L190 25L189 24M203 24L204 25L203 24M252 24L253 25L252 24M149 25L150 26L149 25M157 25L158 26L157 25z"/>
<path style="fill:#5985bf; stroke:none;" d="M167 25L168 26L167 25M180 25L181 26L180 25z"/>
<path style="fill:#9ea0a8; stroke:none;" d="M190 25L191 26L190 25M254 25L255 26L254 25M148 26L149 27L148 26M158 26L159 27L158 26z"/>
<path style="fill:#5985bf; stroke:none;" d="M168 26L169 27L168 26M181 26L182 27L181 26z"/>
<path style="fill:#9ea0a8; stroke:none;" d="M191 26L192 27L191 26M255 26L256 27L255 26M159 27L160 28L159 27M182 27L183 28L182 27z"/>
<path style="fill:#5985bf; stroke:none;" d="M192 27L193 28L192 27z"/>
<path style="fill:#9ea0a8; stroke:none;" d="M256 27L257 28L256 27M160 28L161 29L160 28M183 28L184 29L183 28z"/>
<path style="fill:#5985bf; stroke:none;" d="M193 28L194 29L193 28z"/>
<path style="fill:#9ea0a8; stroke:none;" d="M240 28L240 33L241 33L240 28M257 28L258 29L257 28M161 29L162 30L161 29M184 29L185 30L184 29z"/>
<path style="fill:#5985bf; stroke:none;" d="M194 29L195 30L194 29z"/>
<path style="fill:#9ea0a8; stroke:none;" d="M223 29L223 33L224 33L223 29M148 30L149 31L148 30M162 30L163 31L162 30M185 30L186 31L185 30z"/>
<path style="fill:#5985bf; stroke:none;" d="M195 30L196 31L195 30M206 30L207 31L206 30z"/>
<path style="fill:#9ea0a8; stroke:none;" d="M230 30L230 35L231 35L230 30M247 30L247 34L248 34L247 30M257 30L257 33L258 33L257 30M149 31L150 32L149 31M163 31L164 32L163 31M186 31L187 32L186 31z"/>
<path style="fill:#5985bf; stroke:none;" d="M196 31L197 32L196 31z"/>
<path style="fill:#9ea0a8; stroke:none;" d="M206 31L206 34L207 34L206 31M213 31L213 34L214 34L213 31M150 32L151 33L150 32M164 32L165 33L164 32M187 32L188 33L187 32M151 33L152 34L151 33M165 33L166 34L165 33M188 33L189 34L188 33M152 34L153 35L152 34M189 34L190 35L189 34M153 35L154 36L153 35M176 35L177 36L176 35M190 35L191 36L190 35M239 35L239 41L240 41L239 35M154 36L155 37L154 36M177 36L178 37L177 36M155 37L156 38L155 37M178 37L179 38L178 37M201 37L202 38L201 37z"/>
<path style="fill:#5985bf; stroke:none;" d="M205 37L206 38L205 37z"/>
<path style="fill:#9ea0a8; stroke:none;" d="M222 37L222 41L223 41L222 37M229 37L229 43L230 43L229 37M256 37L256 41L257 41L256 37M156 38L157 39L156 38M179 38L180 39L179 38M202 38L203 39L202 38M205 38L204 41L205 38M212 38L212 42L213 42L212 38M246 38L246 41L247 41L246 38z"/>
<path style="fill:#5985bf; stroke:none;" d="M157 39L158 40L157 39M170 39L171 40L170 39z"/>
<path style="fill:#9ea0a8; stroke:none;" d="M180 39L181 40L180 39M203 39L204 40L203 39z"/>
<path style="fill:#5985bf; stroke:none;" d="M158 40L159 41L158 40M171 40L172 41L171 40z"/>
<path style="fill:#9ea0a8; stroke:none;" d="M181 40L182 41L181 40z"/>
<path style="fill:#5985bf; stroke:none;" d="M159 41L160 42L159 41M172 41L173 42L172 41z"/>
<path style="fill:#9ea0a8; stroke:none;" d="M182 41L183 42L182 41z"/>
<path style="fill:#5985bf; stroke:none;" d="M160 42L161 43L160 42M173 42L174 43L173 42z"/>
<path style="fill:#9ea0a8; stroke:none;" d="M183 42L184 43L183 42z"/>
<path style="fill:#5985bf; stroke:none;" d="M161 43L162 44L161 43M174 43L175 44L174 43M184 43L185 44L184 43z"/>
<path style="fill:#9ea0a8; stroke:none;" d="M238 43L238 48L239 48L238 43M175 44L176 45L175 44z"/>
<path style="fill:#5985bf; stroke:none;" d="M185 44L186 45L185 44M198 44L199 45L198 44z"/>
<path style="fill:#9ea0a8; stroke:none;" d="M221 44L221 48L222 48L221 44M255 44L255 48L256 48L255 44M176 45L177 46L176 45z"/>
<path style="fill:#5985bf; stroke:none;" d="M186 45L187 46L186 45M199 45L200 46L199 45z"/>
<path style="fill:#9ea0a8; stroke:none;" d="M211 45L211 49L212 49L211 45M228 45L228 50L229 50L228 45M245 45L245 49L246 49L245 45M177 46L178 47L177 46z"/>
<path style="fill:#5985bf; stroke:none;" d="M187 46L188 47L187 46M200 46L201 47L200 46z"/>
<path style="fill:#9ea0a8; stroke:none;" d="M178 47L179 48L178 47M201 47L202 48L201 47M151 48L151 49L156 49L151 48M179 48L180 49L179 48M202 48L203 49L202 48M139 49L139 50L145 50L139 49z"/>
<path style="fill:#1091d0; stroke:none;" d="M124 61L164 58C157.243 43.5216 128.298 46.0835 124 61z"/>
<path style="fill:#9ea0a8; stroke:none;" d="M166 49L167 50L166 49M180 49L181 50L180 49M203 49L204 50L203 49M129 50L129 51L134 51L129 50M167 50L168 51L167 50M181 50L182 51L181 50M237 50L237 56L238 56L237 50M168 51L169 52L168 51M182 51L183 52L182 51M220 51L220 55L221 55L220 51z"/>
<path style="fill:#5985bf; stroke:none;" d="M127 52L128 53L127 52z"/>
<path style="fill:#9ea0a8; stroke:none;" d="M169 52L170 53L169 52M183 52L184 53L183 52z"/>
<path style="fill:#5985bf; stroke:none;" d="M203 52L204 53L203 52z"/>
<path style="fill:#9ea0a8; stroke:none;" d="M227 52L227 57L228 57L227 52M244 52L244 56L245 56L244 52M254 52L254 56L255 56L254 52z"/>
<path style="fill:#5985bf; stroke:none;" d="M274 52L275 53L274 52z"/>
<path style="fill:#1091d0; stroke:none;" d="M211 91C227.918 98.912 248.414 79.5517 263 70.8002C271.099 65.9406 281.985 62.6989 276 52L237 74.6003L211 91z"/>
<path style="fill:#9ea0a8; stroke:none;" d="M276 52L277 53L276 52M170 53L171 54L170 53M203 53L203 56L204 56L203 53M210 53L210 56L211 56L210 53M272 53L273 54L272 53M126 54L127 55L126 54M171 54L172 55L171 54M194 54L195 55L194 54M270 54L271 55L270 54M277 54L278 55L277 54M172 55L173 56L172 55M195 55L196 56L195 55z"/>
<path style="fill:#5985bf; stroke:none;" d="M269 55L270 56L269 55z"/>
<path style="fill:#9ea0a8; stroke:none;" d="M125 56L126 57L125 56M173 56L174 57L173 56M196 56L197 57L196 56M253 56L254 57L253 56M267 56L268 57L267 56M278 56L279 57L278 56M174 57L175 58L174 57M197 57L198 58L197 57M252 57L253 58L252 57M265 57L266 58L265 57M124 58L125 59L124 58z"/>
<path style="fill:#5985bf; stroke:none;" d="M151 58L152 59L151 58z"/>
<path style="fill:#9ea0a8; stroke:none;" d="M152 58L152 59L156 59L152 58M175 58L176 59L175 58M198 58L199 59L198 58z"/>
<path style="fill:#5985bf; stroke:none;" d="M202 58L202 61L203 61L202 58z"/>
<path style="fill:#9ea0a8; stroke:none;" d="M236 58L236 63L237 63L236 58M250 58L251 59L250 58M279 58L280 59L279 58z"/>
<path style="fill:#5985bf; stroke:none;" d="M140 59L141 60L140 59z"/>
<path style="fill:#9ea0a8; stroke:none;" d="M141 59L141 60L145 60L141 59z"/>
<path style="fill:#5985bf; stroke:none;" d="M176 59L177 60L176 59M189 59L190 60L189 59z"/>
<path style="fill:#9ea0a8; stroke:none;" d="M199 59L200 60L199 59M219 59L219 62L220 62L219 59M226 59L226 64L227 64L226 59M243 59L243 63L244 63L243 59M248 59L249 60L248 59M262 59L263 60L262 59z"/>
<path style="fill:#5985bf; stroke:none;" d="M279 59L280 60L279 59z"/>
<path style="fill:#9ea0a8; stroke:none;" d="M123 60L124 61L123 60z"/>
<path style="fill:#5985bf; stroke:none;" d="M129 60L130 61L129 60z"/>
<path style="fill:#9ea0a8; stroke:none;" d="M130 60L130 61L134 61L130 60z"/>
<path style="fill:#5985bf; stroke:none;" d="M177 60L178 61L177 60M190 60L191 61L190 60z"/>
<path style="fill:#9ea0a8; stroke:none;" d="M200 60L201 61L200 60M209 60L209 64L210 64L209 60M247 60L248 61L247 60M260 60L261 61L260 60M279 60L280 61L279 60z"/>
<path style="fill:#5985bf; stroke:none;" d="M178 61L179 62L178 61M191 61L192 62L191 61z"/>
<path style="fill:#9ea0a8; stroke:none;" d="M201.667 61.3333L202.333 61.6667L201.667 61.3333M245 61L246 62L245 61M278 61L279 62L278 61z"/>
<path style="fill:#5985bf; stroke:none;" d="M179 62L180 63L179 62M192 62L193 63L192 62z"/>
<path style="fill:#9ea0a8; stroke:none;" d="M257 62L258 63L257 62M276 62L277 63L276 62M193 63L194 64L193 63M255 63L256 64L255 63M163 64L163 65L167 65L163 64z"/>
<path style="fill:#5985bf; stroke:none;" d="M167 64L168 65L167 64z"/>
<path style="fill:#1091d0; stroke:none;" d="M119 78L179 73L170 64.7731L133 67.5756L122.433 69.0278L119 78z"/>
<path style="fill:#9ea0a8; stroke:none;" d="M171 64L172 65L171 64M194 64L195 65L194 64M273 64L274 65L273 64M152 65L152 66L156 66L152 65z"/>
<path style="fill:#5985bf; stroke:none;" d="M156 65L157 66L156 65z"/>
<path style="fill:#9ea0a8; stroke:none;" d="M172 65L173 66L172 65M195 65L196 66L195 65M235 65L235 68L236 68L235 65M252 65L253 66L252 65M271 65L272 66L271 65M141 66L141 67L145 67L141 66z"/>
<path style="fill:#5985bf; stroke:none;" d="M145 66L146 67L145 66z"/>
<path style="fill:#9ea0a8; stroke:none;" d="M173 66L174 67L173 66M196 66L197 67L196 66M218 66L218 70L219 70L218 66M250 66L251 67L250 66M129 67L129 68L134 68L129 67M197 67L198 68L197 67M225 67L225 71L226 71L225 67M268 67L269 68L268 67M281.667 67.3333L282.333 67.6667L281.667 67.3333M121 68L122 69L121 68M184 68L185 69L184 68M198 68L199 69L198 68M208 68L208 71L209 71L208 68M233 68L234 69L233 68M247 68L248 69L247 68M266 68L267 69L266 68z"/>
<path style="fill:#5985bf; stroke:none;" d="M280 68L281 69L280 68z"/>
<path style="fill:#1091d0; stroke:none;" d="M231 98C243.815 107.689 258.742 92.9542 270 86.1998C273.88 83.8719 280.49 81.4017 282.968 77.4714C284.668 74.7773 283.369 70.9188 283 68C265.099 73.2657 246.909 88.2613 231 98z"/>
<path style="fill:#9ea0a8; stroke:none;" d="M185 69L186 70L185 69M199 69L200 70L199 69M245 69L246 70L245 69M278 69L279 70L278 69M120 70L121 71L120 70M186 70L187 71L186 70M200 70L201 71L200 70M230 70L231 71L230 70M263 70L264 71L263 70M283.333 70.6667L283.667 71.3333L283.333 70.6667M187 71L188 72L187 71M228 71L229 72L228 71M242 71L243 72L242 71M261 71L262 72L261 71z"/>
<path style="fill:#5985bf; stroke:none;" d="M275 71L276 72L275 71z"/>
<path style="fill:#9ea0a8; stroke:none;" d="M188 72L189 73L188 72M240 72L241 73L240 72M273 72L274 73L273 72M173 73L173 74L177 74L173 73M189 73L190 74L189 73z"/>
<path style="fill:#5985bf; stroke:none;" d="M200.333 73.6667L200.667 74.3333L200.333 73.6667z"/>
<path style="fill:#9ea0a8; stroke:none;" d="M217 73L217 77L218 77L217 73M225 73L226 74L225 73M258 73L259 74L258 73M271 73L272 74L271 73M119.333 74.6667L119.667 75.3333L119.333 74.6667M161 74L161 75L166 75L161 74M190 74L191 75L190 74M237 74L238 75L237 74M256 74L257 75L256 74M284 74L284 77L285 77L284 74M150 75L150 76L155 76L150 75M191 75L192 76L191 75M200 75L200 78L201 78L200 75M207 75L207 78L208 78L207 75M235 75L236 76L235 75M268 75L269 76L268 75z"/>
<path style="fill:#5985bf; stroke:none;" d="M138 76L139 77L138 76z"/>
<path style="fill:#9ea0a8; stroke:none;" d="M139 76L139 77L143 77L139 76M192 76L193 77L192 76M253 76L254 77L253 76M266 76L267 77L266 76M127 77L127 78L132 78L127 77M193 77L194 78L193 77M232 77L233 78L232 77M251 77L252 78L251 77z"/>
<path style="fill:#5985bf; stroke:none;" d="M265 77L266 78L265 77z"/>
<path style="fill:#9ea0a8; stroke:none;" d="M119.667 78.3333L120.333 78.6667L119.667 78.3333z"/>
<path style="fill:#5985bf; stroke:none;" d="M194 78L195 79L194 78z"/>
<path style="fill:#9ea0a8; stroke:none;" d="M216 78L217 79L216 78M230 78L231 79L230 78M263 78L264 79L263 78M282 78L283 79L282 78M184 79L184 80L192 86L184 79z"/>
<path style="fill:#5985bf; stroke:none;" d="M195 79L196 80L195 79z"/>
<path style="fill:#9ea0a8; stroke:none;" d="M215 79L216 80L215 79M248 79L249 80L248 79M261 79L262 80L261 79M172 80L172 81L177 81L172 80z"/>
<path style="fill:#5985bf; stroke:none;" d="M177 80L178 81L177 80z"/>
<path style="fill:#1091d0; stroke:none;" d="M118 86L118 95L193 89C188.117 78.5367 179.748 80.1943 170 81.169C152.698 82.8989 135.336 84.6318 118 86z"/>
<path style="fill:#5985bf; stroke:none;" d="M196 80L197 81L196 80M199 80L199 83L200 83L199 80z"/>
<path style="fill:#9ea0a8; stroke:none;" d="M213 80L214 81L213 80M227 80L228 81L227 80M246 80L247 81L246 80z"/>
<path style="fill:#5985bf; stroke:none;" d="M260 80L261 81L260 80z"/>
<path style="fill:#9ea0a8; stroke:none;" d="M279 80L280 81L279 80M161 81L161 82L167 82L161 81z"/>
<path style="fill:#5985bf; stroke:none;" d="M167 81L168 82L167 81z"/>
<path style="fill:#9ea0a8; stroke:none;" d="M211 81L212 82L211 81M225 81L226 82L225 81z"/>
<path style="fill:#5985bf; stroke:none;" d="M244 81L245 82L244 81z"/>
<path style="fill:#9ea0a8; stroke:none;" d="M258 81L259 82L258 81M277 81L278 82L277 81M150 82L150 83L156 83L150 82M206 82L208 85L206 82M210 82L211 83L210 82M243 82L244 83L243 82M256 82L257 83L256 82M139 83L139 84L144 84L139 83z"/>
<path style="fill:#5985bf; stroke:none;" d="M144 83L145 84L144 83z"/>
<path style="fill:#9ea0a8; stroke:none;" d="M199 83L200 84L199 83M208 83L209 84L208 83M222 83L223 84L222 83M241 83L242 84L241 83z"/>
<path style="fill:#5985bf; stroke:none;" d="M255 83L256 84L255 83z"/>
<path style="fill:#9ea0a8; stroke:none;" d="M274 83L275 84L274 83M128 84L128 85L134 85L128 84M220 84L221 85L220 84M253 84L254 85L253 84M272 84L273 85L272 84M118 85L118 86L122 86L118 85z"/>
<path style="fill:#5985bf; stroke:none;" d="M122 85L123 86L122 85z"/>
<path style="fill:#9ea0a8; stroke:none;" d="M238 85L239 86L238 85M251 85L252 86L251 85M284.667 85.3333L285.333 85.6667L284.667 85.3333M217 86L218 87L217 86M236 86L237 87L236 86M250 86L251 87L250 86M269 86L270 87L269 86M282 86L281 88L282 86z"/>
<path style="fill:#1091d0; stroke:none;" d="M251 107C265.789 110.503 285.998 103.862 286 86C276.753 88.121 256.201 99.0352 251 107z"/>
<path style="fill:#9ea0a8; stroke:none;" d="M193.333 87.6667L193.667 88.3333L193.333 87.6667M215 87L216 88L215 87z"/>
<path style="fill:#5985bf; stroke:none;" d="M234 87L235 88L234 87z"/>
<path style="fill:#9ea0a8; stroke:none;" d="M248 87L249 88L248 87M267 87L268 88L267 87M233 88L234 89L233 88M246 88L247 89L246 88M279 88L280 89L279 88z"/>
<path style="fill:#5985bf; stroke:none;" d="M182 89L183 90L182 89z"/>
<path style="fill:#9ea0a8; stroke:none;" d="M183 89L183 90L190 90L183 89M212 89L213 90L212 89M231 89L232 90L231 89M245 89L246 90L245 89M264 89L265 90L264 89M277 89L278 90L277 89z"/>
<path style="fill:#5985bf; stroke:none;" d="M171 90L172 91L171 90z"/>
<path style="fill:#9ea0a8; stroke:none;" d="M172 90L172 91L178 91L172 90M210 90L210 92L212 92L210 90z"/>
<path style="fill:#5985bf; stroke:none;" d="M229 90L230 91L229 90z"/>
<path style="fill:#9ea0a8; stroke:none;" d="M243 90L244 91L243 90M262 90L263 91L262 90M276 90L277 91L276 90z"/>
<path style="fill:#5985bf; stroke:none;" d="M160 91L161 92L160 91z"/>
<path style="fill:#9ea0a8; stroke:none;" d="M161 91L161 92L167 92L161 91M228 91L229 92L228 91M241 91L242 92L241 91M274 91L275 92L274 91M149 92L149 93L156 93L149 92M213.667 92.3333L214.333 92.6667L213.667 92.3333M226 92L227 93L226 92M240 92L241 93L240 92M259 92L260 93L259 92z"/>
<path style="fill:#5985bf; stroke:none;" d="M137 93L138 94L137 93z"/>
<path style="fill:#9ea0a8; stroke:none;" d="M138 93L138 94L144 94L138 93M216 93L217 94L216 93z"/>
<path style="fill:#5985bf; stroke:none;" d="M224 93L225 94L224 93z"/>
<path style="fill:#9ea0a8; stroke:none;" d="M238 93L239 94L238 93M257 93L258 94L257 93M271 93L272 94L271 93M126 94L126 95L133 95L126 94M219 94L220 95L219 94M223 94L224 95L223 94M236 94L237 95L236 94M269 94L270 95L269 94M118 95L118 96L122 96L118 95M221 95L222 96L221 95M235 95L236 96L235 95M254 95L255 96L254 95M183 96L183 97L192 97L183 96z"/>
<path style="fill:#5985bf; stroke:none;" d="M153 160L194 96C190.324 96.6824 184.698 96.1215 181.76 98.6034C171.101 107.608 163.733 125.401 156 137C153.143 141.285 147.791 146.828 146.85 151.985C146.123 155.97 150.161 158.203 153 160z"/>
<path style="fill:#9ea0a8; stroke:none;" d="M194 96L195 97L194 96M233 96L234 97L233 96M252 96L253 97L252 96M266 96L267 97L266 96M285 96L286 97L285 96M172 97L173 98L172 97M231 97L232 98L231 97M264 97L265 98L264 97M162 98L162 99L169 99L162 98z"/>
<path style="fill:#5985bf; stroke:none;" d="M139 148L140 148L173 98C169.508 98.2756 164.375 98.1796 161.326 100.027C152.852 105.16 145.79 121.672 140.576 130C138.743 132.927 135.395 136.454 135.005 140C134.661 143.129 137.235 145.734 139 148z"/>
<path style="fill:#9ea0a8; stroke:none;" d="M181 98L182 99L181 98M207 98L208 99L207 98z"/>
<path style="fill:#1091d0; stroke:none;" d="M208 98L212.51 109.182L233 117.681L275 133L279 125L208 98z"/>
<path style="fill:#5985bf; stroke:none;" d="M209 98L210 99L209 98z"/>
<path style="fill:#9ea0a8; stroke:none;" d="M210 98L211 99L210 98M230 98L231 99L230 98M249 98L250 99L249 98M282 98L283 99L282 98M150 99L152 101L152 99L150 99M160 99L161 100L160 99M172 99L173 100L172 99M180 99L181 100L180 99M192 99L193 100L192 99M212 99L213 100L212 99M232 99L233 100L232 99M247 99L248 100L247 99M261 99L262 100L261 99M280 99L281 100L280 99M140 100L140 101L146 101L140 100z"/>
<path style="fill:#5985bf; stroke:none;" d="M129 133L130 133L151 100C136.362 100.629 120.083 118.807 129 133z"/>
<path style="fill:#9ea0a8; stroke:none;" d="M171 100L172 101L171 100M199 101L199 102L202 102L199 101M208 100L209 101L208 100z"/>
<path style="fill:#5985bf; stroke:none;" d="M214 100L215 101L214 100z"/>
<path style="fill:#9ea0a8; stroke:none;" d="M215 100L216 101L215 100M234.667 100.333L235.333 100.667L234.667 100.333M259 100L260 101L259 100M159 101L160 102L159 101M179 101L180 102L179 101z"/>
<path style="fill:#1091d0; stroke:none;" d="M200 101L194.894 112L201.656 134L215 175L224 173L208.667 124L200 101z"/>
<path style="fill:#9ea0a8; stroke:none;" d="M217.667 101.333L218.333 101.667L217.667 101.333M237 101L238 102L237 101M244 101L245 102L244 101M277 101L278 102L277 101M138 102L139 103L138 102M158 102L159 103L158 102M170 102L171 103L170 102M178 102L179 103L178 102M190 102L191 103L190 102z"/>
<path style="fill:#5985bf; stroke:none;" d="M201 102L202 103L201 102z"/>
<path style="fill:#9ea0a8; stroke:none;" d="M220 102L221 103L220 102M240 102L241 103L240 102M242 102L243 103L242 102M256 102L257 103L256 102M275 102L276 103L275 102M137 103L138 104L137 103M149 103L150 104L149 103M169 103L170 104L169 103M209.333 103.667L209.667 104.333L209.333 103.667z"/>
<path style="fill:#5985bf; stroke:none;" d="M222 103L223 104L222 103z"/>
<path style="fill:#9ea0a8; stroke:none;" d="M223 103L224 104L223 103M254 103L255 104L254 103M157 104L158 105L157 104M177 104L178 105L177 104M197 104L198 105L197 104M202.333 104.667L202.667 105.333L202.333 104.667M225 104L226 105L225 104M272 104L273 105L272 104M136 105L137 106L136 105M148 105L149 106L148 105M156 105L157 106L156 105M168 105L169 106L168 105M176 105L177 106L176 105M188 105L189 106L188 105M228 105L229 106L228 105M270 105L271 106L270 105M135 106L136 107L135 106M147 106L148 107L147 106M167 106L168 107L167 106M196 106L197 107L196 106z"/>
<path style="fill:#5985bf; stroke:none;" d="M210 106L211 107L210 106M230 106L231 107L230 106z"/>
<path style="fill:#9ea0a8; stroke:none;" d="M231 106L232 107L231 106M250 106L251 107L250 106M155 107L156 108L155 107M175 107L176 108L175 107M187 107L188 108L187 107M195 107L196 108L195 107M203.333 107.667L203.667 108.333L203.333 107.667M210 107L211 108L210 107M233 107L234 108L233 107M253 107L254 108L253 107M267 107L268 108L267 107M134 108L135 109L134 108M146 108L147 109L146 108M154 108L155 109L154 108M166 108L167 109L166 108M186 108L187 109L186 108M236 108L237 109L236 108z"/>
<path style="fill:#5985bf; stroke:none;" d="M256 108L257 109L256 108z"/>
<path style="fill:#9ea0a8; stroke:none;" d="M265 108L266 109L265 108M133 109L134 110L133 109M145 109L146 110L145 109M165 109L166 110L165 109z"/>
<path style="fill:#5985bf; stroke:none;" d="M194 109L195 110L194 109z"/>
<path style="fill:#9ea0a8; stroke:none;" d="M211 109L212 110L211 109z"/>
<path style="fill:#5985bf; stroke:none;" d="M238 109L239 110L238 109z"/>
<path style="fill:#9ea0a8; stroke:none;" d="M239 109L240 110L239 109M258 109L259 110L258 109M153 110L154 111L153 110M173 110L174 111L173 110M185 110L186 111L185 110M204.333 110.667L204.667 111.333L204.333 110.667M213 110L214 111L213 110z"/>
<path style="fill:#5985bf; stroke:none;" d="M214 110L215 111L214 110z"/>
<path style="fill:#9ea0a8; stroke:none;" d="M241 110L242 111L241 110M261.667 110.333L262.333 110.667L261.667 110.333M132 111L133 112L132 111M144 111L145 112L144 111M152 111L153 112L152 111M164 111L165 112L164 111M184 111L185 112L184 111z"/>
<path style="fill:#5985bf; stroke:none;" d="M194 111L195 112L194 111z"/>
<path style="fill:#9ea0a8; stroke:none;" d="M216 111L217 112L216 111M244 111L245 112L244 111M131 112L132 113L131 112M143 112L144 113L143 112M163 112L164 113L163 112M194 112L195 113L194 112z"/>
<path style="fill:#5985bf; stroke:none;" d="M219 112L220 113L219 112M246 112L247 113L246 112z"/>
<path style="fill:#9ea0a8; stroke:none;" d="M151 113L152 114L151 113M171 113L172 114L171 113M183 113L184 114L183 113M221 113L222 114L221 113M249 113L250 114L249 113M130 114L131 115L130 114M142 114L143 115L142 114M150 114L151 115L150 114M162 114L163 115L162 114M182 114L183 115L182 114M205 114L206 115L205 114M224 114L225 115L224 114z"/>
<path style="fill:#5985bf; stroke:none;" d="M251 114L252 115L251 114z"/>
<path style="fill:#9ea0a8; stroke:none;" d="M252 114L253 115L252 114M141 115L142 116L141 115M161 115L162 116L161 115M195 115L196 116L195 115z"/>
<path style="fill:#5985bf; stroke:none;" d="M227 115L228 116L227 115M254 115L255 116L254 115z"/>
<path style="fill:#9ea0a8; stroke:none;" d="M149 116L150 117L149 116M169 116L170 117L169 116M181 116L182 117L181 116M229 116L230 117L229 116M257 116L258 117L257 116M128 117L129 118L128 117M140 117L141 118L140 117M148 117L149 118L148 117M160 117L161 118L160 117M180 117L181 118L180 117M206 117L207 118L206 117M232 117L233 118L232 117z"/>
<path style="fill:#5985bf; stroke:none;" d="M259 117L260 118L259 117z"/>
<path style="fill:#9ea0a8; stroke:none;" d="M260 117L261 118L260 117M139 118L140 119L139 118M187 119L187 120L190 120L190 119L187 119M196 118L197 119L196 118M214 118L214 120L216 118L214 118M234 118L235 119L234 118z"/>
<path style="fill:#5985bf; stroke:none;" d="M235 118L236 119L235 118z"/>
<path style="fill:#9ea0a8; stroke:none;" d="M262 118L263 119L262 118M147 119L148 120L147 119M167 119L168 120L167 119M179 119L180 120L179 119z"/>
<path style="fill:#1091d0; stroke:none;" d="M188 119C176.674 135.808 194.305 157.754 197 176L207 176L195.333 138L188 119M215 119C215.504 122.415 216.159 126.729 218.702 129.301C225.7 136.377 242.766 139.169 252 142.797C255.317 144.1 260.182 146.909 263.826 146.472C267.471 146.036 269.011 141.971 270 139L215 119z"/>
<path style="fill:#9ea0a8; stroke:none;" d="M217 119L218 120L217 119M237 119L238 120L237 119M265 119L266 120L265 119M126 120L127 121L126 120M138 120L139 121L138 120M158 120L159 121L158 120M178 120L179 121L178 120z"/>
<path style="fill:#5985bf; stroke:none;" d="M189 120L190 121L189 120z"/>
<path style="fill:#9ea0a8; stroke:none;" d="M207 120L208 121L207 120M220 120L221 121L220 120M240 120L241 121L240 120z"/>
<path style="fill:#5985bf; stroke:none;" d="M267 120L268 121L267 120z"/>
<path style="fill:#9ea0a8; stroke:none;" d="M268 120L269 121L268 120M137 121L138 122L137 121M186 121L187 122L186 121M197 121L198 122L197 121z"/>
<path style="fill:#5985bf; stroke:none;" d="M222 121L223 122L222 121z"/>
<path style="fill:#9ea0a8; stroke:none;" d="M223 121L224 122L223 121M242 121L243 122L242 121z"/>
<path style="fill:#5985bf; stroke:none;" d="M243 121L244 122L243 121z"/>
<path style="fill:#9ea0a8; stroke:none;" d="M270 121L271 122L270 121M145 122L146 123L145 122M165 122L166 123L165 122M177 122L178 123L177 122M185 122L186 123L185 122M190 122L191 123L190 122M215 122L216 123L215 122M225 122L226 123L225 122M245 122L246 123L245 122z"/>
<path style="fill:#5985bf; stroke:none;" d="M272 122L273 123L272 122z"/>
<path style="fill:#9ea0a8; stroke:none;" d="M273 122L274 123L273 122M124.333 123.667L124.667 124.333L124.333 123.667M136 123L137 124L136 123M156 123L157 124L156 123M176 123L177 124L176 123z"/>
<path style="fill:#5985bf; stroke:none;" d="M190 123L191 124L190 123z"/>
<path style="fill:#9ea0a8; stroke:none;" d="M208 123L209 124L208 123z"/>
<path style="fill:#5985bf; stroke:none;" d="M227 123L228 124L227 123z"/>
<path style="fill:#9ea0a8; stroke:none;" d="M228 123L229 124L228 123M248 123L249 124L248 123z"/>
<path style="fill:#5985bf; stroke:none;" d="M275 123L276 124L275 123z"/>
<path style="fill:#9ea0a8; stroke:none;" d="M276 123L277 124L276 123M135 124L136 125L135 124M164 124L165 125L164 124M184 124L185 125L184 124M198 124L199 125L198 124z"/>
<path style="fill:#5985bf; stroke:none;" d="M230 124L231 125L230 124z"/>
<path style="fill:#9ea0a8; stroke:none;" d="M231 124L232 125L231 124M250 124L251 125L250 124z"/>
<path style="fill:#5985bf; stroke:none;" d="M251 124L252 125L251 124z"/>
<path style="fill:#9ea0a8; stroke:none;" d="M278 124L279 125L278 124M143 125L144 126L143 125M163 125L164 126L163 125M175 125L176 126L175 125M183 125L184 126L183 125M191.333 125.667L191.667 126.333L191.333 125.667M216.333 125.667L216.667 126.333L216.333 125.667M233 125L234 126L233 125M253 125L254 126L253 125M125.333 126.667L125.667 127.333L125.333 126.667M134 126L135 127L134 126M154 126L155 127L154 126M174 126L175 127L174 126M209 126L210 127L209 126z"/>
<path style="fill:#5985bf; stroke:none;" d="M235 126L236 127L235 126z"/>
<path style="fill:#9ea0a8; stroke:none;" d="M236 126L237 127L236 126M256 126L257 127L256 126M278 126L279 127L278 126M133 127L134 128L133 127M162 127L163 128L162 127M182 127L183 128L182 127M199 127L200 128L199 127z"/>
<path style="fill:#5985bf; stroke:none;" d="M238 127L239 128L238 127z"/>
<path style="fill:#9ea0a8; stroke:none;" d="M239 127L240 128L239 127M258 127L259 128L258 127z"/>
<path style="fill:#5985bf; stroke:none;" d="M259 127L260 128L259 127z"/>
<path style="fill:#9ea0a8; stroke:none;" d="M141 128L142 129L141 128M161 128L162 129L161 128M173 128L174 129L173 128M192.333 128.667L192.667 129.333L192.333 128.667z"/>
<path style="fill:#5985bf; stroke:none;" d="M217 128L218 129L217 128z"/>
<path style="fill:#9ea0a8; stroke:none;" d="M241 128L242 129L241 128M261 128L262 129L261 128M277 128L278 129L277 128M126 129L127 130L126 129M132 129L133 130L132 129M152 129L153 130L152 129M172 129L173 130L172 129M182.333 129.667L182.667 130.333L182.333 129.667M210 129L211 130L210 129M217 129L218 130L217 129z"/>
<path style="fill:#5985bf; stroke:none;" d="M243 129L244 130L243 129z"/>
<path style="fill:#9ea0a8; stroke:none;" d="M244 129L245 130L244 129M263.667 129.333L264.333 129.667L263.667 129.333M127.333 130.667L127.667 131.333L127.333 130.667M131 130L132 131L131 130M140 130L141 131L140 130M160 130L161 131L160 130M200 130L201 131L200 130M219 130L220 131L219 130M246.667 130.333L247.333 130.667L246.667 130.333M266 130L267 131L266 130z"/>
<path style="fill:#5985bf; stroke:none;" d="M267 130L268 131L267 130z"/>
<path style="fill:#9ea0a8; stroke:none;" d="M276 130L277 131L276 130M139 131L140 132L139 131M151 131L152 132L151 131M159 131L160 132L159 131M171 131L172 132L171 131M193.333 131.667L193.667 132.333L193.333 131.667M221 131L222 132L221 131z"/>
<path style="fill:#5985bf; stroke:none;" d="M222 131L223 132L222 131M248 131L249 132L248 131z"/>
<path style="fill:#9ea0a8; stroke:none;" d="M249 131L250 132L249 131M269 131L270 132L269 131M128 132L128 134L130 134L128 132M130 132L131 133L130 132M150 132L151 133L150 132M170 132L171 133L170 132M183.333 132.667L183.667 133.333L183.333 132.667M224 132L225 133L224 132z"/>
<path style="fill:#5985bf; stroke:none;" d="M251 132L252 133L251 132z"/>
<path style="fill:#9ea0a8; stroke:none;" d="M252 132L253 133L252 132M271 132L272 133L271 132z"/>
<path style="fill:#5985bf; stroke:none;" d="M272 132L273 133L272 132z"/>
<path style="fill:#9ea0a8; stroke:none;" d="M275 132L276 133L275 132M138 133L139 134L138 133M158 133L159 134L158 133M201.333 133.667L201.667 134.333L201.333 133.667M211 133L212 134L211 133M226.667 133.333L227.333 133.667L226.667 133.333M254.667 133.333L255.333 133.667L254.667 133.333M274 133L275 134L274 133M137 134L138 135L137 134M149 134L150 135L149 134M157 134L158 135L157 134M169 134L170 135L169 134M194.333 134.667L194.667 135.333L194.333 134.667M229 134L230 135L229 134z"/>
<path style="fill:#5985bf; stroke:none;" d="M230 134L231 135L230 134M256 134L257 135L256 134z"/>
<path style="fill:#9ea0a8; stroke:none;" d="M257 134L258 135L257 134M148 135L149 136L148 135M168 135L169 136L168 135M184.333 135.667L184.667 136.333L184.333 135.667M231.667 135.333L232.333 135.667L231.667 135.333M259.667 135.333L260.333 135.667L259.667 135.333M136 136L137 137L136 136M156 136L157 137L156 136M176.667 136.333L177.333 136.667L176.667 136.333z"/>
<path style="fill:#5985bf; stroke:none;" d="M202 136L203 137L202 136z"/>
<path style="fill:#9ea0a8; stroke:none;" d="M212 136L213 137L212 136M234.667 136.333L235.333 136.667L234.667 136.333M262 136L263 137L262 136M135 137L136 138L135 137M147 137L148 138L147 137M155 137L156 138L155 137M167 137L168 138L167 137z"/>
<path style="fill:#1091d0; stroke:none;" d="M176 137C167.459 149.674 173.113 171.917 189 175C187.468 164.625 182.94 144.873 176 137z"/>
<path style="fill:#5985bf; stroke:none;" d="M177 137L178 138L177 137z"/>
<path style="fill:#9ea0a8; stroke:none;" d="M195.333 137.667L195.667 138.333L195.333 137.667M202 137L203 138L202 137M237 137L238 138L237 137z"/>
<path style="fill:#5985bf; stroke:none;" d="M238 137L239 138L238 137M264 137L265 138L264 137z"/>
<path style="fill:#9ea0a8; stroke:none;" d="M265 137L266 138L265 137M146 138L147 139L146 138M166 138L167 139L166 138M185.333 138.667L185.667 139.333L185.333 138.667M239.667 138.333L240.333 138.667L239.667 138.333M267.667 138.333L268.333 138.667L267.667 138.333M134 139L135 140L134 139M154 139L155 140L154 139M174 139L175 140L174 139M213 139L214 140L213 139z"/>
<path style="fill:#5985bf; stroke:none;" d="M221 139L221 141L223 139L221 139z"/>
<path style="fill:#9ea0a8; stroke:none;" d="M223 139L224 140L223 139M242 139L243 140L242 139z"/>
<path style="fill:#5985bf; stroke:none;" d="M243 139L244 140L243 139z"/>
<path style="fill:#9ea0a8; stroke:none;" d="M270.333 139.667L270.667 140.333L270.333 139.667M133 140L134 141L133 140M145 140L146 141L145 140M153 140L154 141L153 140M165 140L166 141L165 140M178 140L179 141L178 140M196.333 140.667L196.667 141.333L196.333 140.667M203 140L204 141L203 140z"/>
<path style="fill:#1091d0; stroke:none;" d="M222 140C224.158 154.667 248.733 165.682 259 153L222 140z"/>
<path style="fill:#9ea0a8; stroke:none;" d="M225 140L226 141L225 140M245 140L246 141L245 140z"/>
<path style="fill:#5985bf; stroke:none;" d="M246 140L247 141L246 140z"/>
<path style="fill:#9ea0a8; stroke:none;" d="M144 141L145 142L144 141M164 141L165 142L164 141M186.333 141.667L186.667 142.333L186.333 141.667M221 141L222 142L221 141z"/>
<path style="fill:#5985bf; stroke:none;" d="M227 141L228 142L227 141z"/>
<path style="fill:#9ea0a8; stroke:none;" d="M228 141L229 142L228 141M247.667 141.333L248.333 141.667L247.667 141.333z"/>
<path style="fill:#5985bf; stroke:none;" d="M269 141L270 142L269 141z"/>
<path style="fill:#9ea0a8; stroke:none;" d="M134 142L135 143L134 142M152 142L153 143L152 142M172 142L173 143L172 142M214 142L215 143L214 142M230.667 142.333L231.333 142.667L230.667 142.333M250 142L251 143L250 142z"/>
<path style="fill:#5985bf; stroke:none;" d="M251 142L252 143L251 142z"/>
<path style="fill:#9ea0a8; stroke:none;" d="M135 143L136 144L135 143M143 143L144 144L143 143M151 143L152 144L151 143M163 143L164 144L163 143M179 143L180 144L179 143M204 143L205 144L204 143z"/>
<path style="fill:#5985bf; stroke:none;" d="M222 143L223 144L222 143M232 143L233 144L232 143z"/>
<path style="fill:#9ea0a8; stroke:none;" d="M233 143L234 144L233 143M253 143L254 144L253 143M268 143L269 144L268 143M136 144L137 145L136 144M142 144L143 145L142 144M187.333 144.667L187.667 145.333L187.333 144.667M197 144L198 145L197 144M222 144L223 145L222 144z"/>
<path style="fill:#5985bf; stroke:none;" d="M235 144L236 145L235 144z"/>
<path style="fill:#9ea0a8; stroke:none;" d="M236 144L237 145L236 144M255.667 144.333L256.333 144.667L255.667 144.333M267 144L268 145L267 144M150 145L151 146L150 145M170 145L171 146L170 145M215 145L216 146L215 145M238.667 145.333L239.333 145.667L238.667 145.333M258 145L259 146L258 145z"/>
<path style="fill:#5985bf; stroke:none;" d="M259 145L260 146L259 145M266 145L267 146L266 145z"/>
<path style="fill:#9ea0a8; stroke:none;" d="M141 146L142 147L141 146M161 146L162 147L161 146M180 146L181 147L180 146M205 146L206 147L205 146z"/>
<path style="fill:#5985bf; stroke:none;" d="M223 146L224 147L223 146M240 146L241 147L240 146z"/>
<path style="fill:#9ea0a8; stroke:none;" d="M241 146L242 147L241 146M260.667 146.333L261.333 146.667L260.667 146.333M138 147L139 148L138 147M140 147L141 148L140 147M160 147L161 148L160 147M170 147L171 148L170 147z"/>
<path style="fill:#5985bf; stroke:none;" d="M188 147L189 148L188 147z"/>
<path style="fill:#9ea0a8; stroke:none;" d="M198 147L199 148L198 147M223 147L224 148L223 147z"/>
<path style="fill:#5985bf; stroke:none;" d="M243 147L244 148L243 147z"/>
<path style="fill:#9ea0a8; stroke:none;" d="M244 147L245 148L244 147M263 147L264 148L263 147z"/>
<path style="fill:#5985bf; stroke:none;" d="M264 147L265 148L264 147z"/>
<path style="fill:#9ea0a8; stroke:none;" d="M139 148L140 149L139 148M148 148L149 149L148 148M188 148L189 149L188 148M216 148L217 149L216 148M246 148L247 149L246 148M159 149L160 150L159 149M181 149L182 150L181 149M206 149L207 150L206 149z"/>
<path style="fill:#5985bf; stroke:none;" d="M248 149L249 150L248 149z"/>
<path style="fill:#9ea0a8; stroke:none;" d="M249 149L250 150L249 149M171.333 150.667L171.667 151.333L171.333 150.667M199 150L200 151L199 150M224 150L225 151L224 150z"/>
<path style="fill:#5985bf; stroke:none;" d="M251 150L252 151L251 150z"/>
<path style="fill:#9ea0a8; stroke:none;" d="M252 150L253 151L252 150M146 151L147 152L146 151M189.333 151.667L189.667 152.333L189.333 151.667M217 151L218 152L217 151M226 151L227 152L226 151z"/>
<path style="fill:#5985bf; stroke:none;" d="M227 151L228 152L227 151z"/>
<path style="fill:#9ea0a8; stroke:none;" d="M254 151L255 152L254 151M145 152L145 155L146 155L145 152M157 152L158 153L157 152M182 152L183 153L182 152M207 152L208 153L207 152M228 152L229 153L228 152z"/>
<path style="fill:#5985bf; stroke:none;" d="M229 152L230 153L229 152M256 152L257 153L256 152z"/>
<path style="fill:#9ea0a8; stroke:none;" d="M257 152L258 153L257 152z"/>
<path style="fill:#5985bf; stroke:none;" d="M172 153L173 154L172 153M182 153L183 154L182 153z"/>
<path style="fill:#9ea0a8; stroke:none;" d="M200 153L201 154L200 153M231 153L232 154L231 153z"/>
<path style="fill:#5985bf; stroke:none;" d="M232 153L233 154L232 153z"/>
<path style="fill:#9ea0a8; stroke:none;" d="M172 154L173 155L172 154M190 154L191 155L190 154M218 154L219 155L218 154M234 154L235 155L234 154M146 155L147 156L146 155M155 155L156 156L155 155M183 155L184 156L183 155M208.333 155.667L208.667 156.333L208.333 155.667z"/>
<path style="fill:#5985bf; stroke:none;" d="M218 155L219 156L218 155z"/>
<path style="fill:#9ea0a8; stroke:none;" d="M236 155L237 156L236 155z"/>
<path style="fill:#5985bf; stroke:none;" d="M237 155L238 156L237 155M173 156L174 157L173 156M183 156L184 157L183 156z"/>
<path style="fill:#9ea0a8; stroke:none;" d="M201 156L202 157L201 156M239 156L240 157L239 156z"/>
<path style="fill:#5985bf; stroke:none;" d="M255 156L256 157L255 156z"/>
<path style="fill:#9ea0a8; stroke:none;" d="M149 157L150 158L149 157M154 157L155 158L154 157M173 157L174 158L173 157M191.333 157.667L191.667 158.333L191.333 157.667z"/>
<path style="fill:#5985bf; stroke:none;" d="M201 157L202 158L201 157z"/>
<path style="fill:#9ea0a8; stroke:none;" d="M219.333 157.667L219.667 158.333L219.333 157.667M242 157L243 158L242 157M254 157L255 158L254 157M150 158L151 159L150 158M153 158L154 159L153 158M184.333 158.667L184.667 159.333L184.333 158.667M209.333 158.667L209.667 159.333L209.333 158.667M244 158L245 159L244 158z"/>
<path style="fill:#5985bf; stroke:none;" d="M245 158L246 159L245 158z"/>
<path style="fill:#9ea0a8; stroke:none;" d="M253 158L254 159L253 158M151 159L152 160L151 159z"/>
<path style="fill:#5985bf; stroke:none;" d="M174 159L175 160L174 159z"/>
<path style="fill:#9ea0a8; stroke:none;" d="M202 159L203 160L202 159M247 159L248 160L247 159M174 160L175 161L174 160M192.333 160.667L192.667 161.333L192.333 160.667z"/>
<path style="fill:#5985bf; stroke:none;" d="M202 160L203 161L202 160z"/>
<path style="fill:#9ea0a8; stroke:none;" d="M249.667 160.333L250.333 160.667L249.667 160.333M185.333 161.667L185.667 162.333L185.333 161.667M220 161L221 162L220 161M203 162L204 163L203 162M210 162L211 163L210 162M175 163L176 164L175 163M193.333 163.667L193.667 164.333L193.333 163.667z"/>
<path style="fill:#5985bf; stroke:none;" d="M203 163L204 164L203 163z"/>
<path style="fill:#9ea0a8; stroke:none;" d="M186.333 164.667L186.667 165.333L186.333 164.667M221 164L222 165L221 164M211 165L212 166L211 165M176 166L177 167L176 166M194.333 166.667L194.667 167.333L194.333 166.667M204 166L205 167L204 166M187.333 167.667L187.667 168.333L187.333 167.667M222 167L223 168L222 167M212 168L213 169L212 168M177 169L178 170L177 169M195.333 169.667L195.667 170.333L195.333 169.667M205 169L206 170L205 169M188.333 170.667L188.667 171.333L188.333 170.667M223 170L224 171L223 170M213 171L214 172L213 171M178 172L179 173L178 172M196.333 172.667L196.667 173.333L196.333 172.667M206 172L207 173L206 172M180.667 173.333L181.333 173.667L180.667 173.333M189.333 173.667L189.667 174.333L189.333 173.667M222.667 173.333L223.333 173.667L222.667 173.333M184.667 174.333L185.333 174.667L184.667 174.333z"/>
<path style="fill:#5985bf; stroke:none;" d="M186 174L187 175L186 174z"/>
<path style="fill:#9ea0a8; stroke:none;" d="M214 174L215 175L214 174M217 174L217 175L220 175L217 174M207 175L208 176L207 175M198 176L198 177L207 177L198 176M151 218L151 219L161 219L151 218M145 219L145 220L148 220L145 219z"/>
<path style="fill:#5e8581; stroke:none;" d="M172 277C163.695 278.221 155.13 280.928 147 277.08C128.989 268.555 128.467 242.418 145 232.144C153.447 226.895 162.221 229.653 171 232L172 221C158.856 218.451 144.758 217.257 133.001 225.105C116.364 236.21 114.095 267.198 129.093 280.671C137.334 288.075 148.46 289.122 159 288.996C162.239 288.958 168.745 289.271 170.972 286.4C172.789 284.059 171.808 279.791 172 277z"/>
<path style="fill:#9ea0a8; stroke:none;" d="M164 219L164 220L167 220L164 219M182 289L196 289L196 259L219 259L219 258L195 258L195 288L183 288L183 220L220 220L220 230L195 230C195 234.167 193.328 242.988 196.028 246.397C199.253 250.468 214.14 248 219 248L219 247L196 247L196 231C202.5 231 226.963 234.678 220.397 221.318C218.952 218.378 214.703 219.006 212 219C206.638 218.989 185.208 216.025 182.603 221.318C180.191 226.221 182 235.604 182 241L182 289M142.667 220.333L143.333 220.667L142.667 220.333M169.667 220.333L170.333 220.667L169.667 220.333z"/>
<path style="fill:#5e8581; stroke:none;" d="M183 220L183 288L195 288L195 258L219 258L219 248C213.809 248 199.254 250.517 196.028 245.682C193.541 241.956 195 234.317 195 230L220 230L220 220L183 220z"/>
<path style="fill:#9ea0a8; stroke:none;" d="M242.333 220.667L242.667 221.333L242.333 220.667z"/>
<path style="fill:#5e8581; stroke:none;" d="M217 288C220.742 288 227.272 289.25 230.182 286.397C233.81 282.839 232.916 275.916 237.394 273.028C241.653 270.28 259.754 270.465 263.722 273.603C267.446 276.548 268.953 283.584 270 288L285 288L265.576 238L256.775 220.603L243.075 221.603L235 241L217 288z"/>
<path style="fill:#9ea0a8; stroke:none;" d="M258 220L259 221L258 220M139 221L140 222L139 221M137 222L138 223L137 222M259 222L260 223L259 222M135 223L136 224L135 223M241.333 223.667L241.667 224.333L241.333 223.667M133 224L134 225L133 224M260.333 224.667L260.667 225.333L260.333 224.667M132 225L133 226L132 225M240.333 225.667L240.667 226.333L240.333 225.667M130 226L131 227L130 226M171 226L171 232L172 232L171 226M129 227L130 228L129 227M261 227L262 228L261 227M128 228L129 229L128 228M239.333 228.667L239.667 229.333L239.333 228.667M127 229L128 230L127 229M151 229L151 230L155 230L151 229M158 229L158 230L163 230L158 229M262.333 229.667L262.667 230.333L262.333 229.667M126 230L127 231L126 230M147.667 230.333L148.333 230.667L147.667 230.333M165.667 230.333L166.333 230.667L165.667 230.333M145.667 231.333L146.333 231.667L145.667 231.333M168 231L169 232L168 231M238 231L239 232L238 231M125 232L126 233L125 232M144 232L145 233L144 232M170 232L171 233L170 232M263 232L264 233L263 232M124 233L125 234L124 233M142 233L143 234L142 233M237.333 233.667L237.667 234.333L237.333 233.667M250 233L249 236L250 236L250 233M141 234L142 235L141 234z"/>
<path style="fill:#fefefe; stroke:none;" d="M250 234L241 262L260 262L250 234z"/>
<path style="fill:#9ea0a8; stroke:none;" d="M264.333 234.667L264.667 235.333L264.333 234.667M123 235L124 236L123 235M140 235L141 236L140 235M251 235L252 236L251 235M139 236L140 237L139 236M236.333 236.667L236.667 237.333L236.333 236.667M122 237L123 238L122 237M138 237L139 238L138 237M248.333 237.667L248.667 238.333L248.333 237.667M265 237L266 238L265 237M137 238L138 239L137 238M235.333 238.667L235.667 239.333L235.333 238.667M252 238L253 239L252 238M121.333 239.667L121.667 240.333L121.333 239.667M266.333 239.667L266.667 240.333L266.333 239.667M136 240L137 241L136 240M247.333 240.667L247.667 241.333L247.333 240.667M253.333 240.667L253.667 241.333L253.333 240.667M234.333 241.667L234.667 242.333L234.333 241.667M120.333 242.667L120.667 243.333L120.333 242.667M135 242L136 243L135 242M267.333 242.667L267.667 243.333L267.333 242.667M233.333 243.667L233.667 244.333L233.333 243.667M246.333 243.667L246.667 244.333L246.333 243.667M254.333 243.667L254.667 244.333L254.333 243.667M134.333 244.667L134.667 245.333L134.333 244.667M268.333 244.667L268.667 245.333L268.333 244.667M119 246L119 253L120 253L119 246M232.333 246.667L232.667 247.333L232.333 246.667M245.333 246.667L245.667 247.333L245.333 246.667M255.333 246.667L255.667 247.333L255.333 246.667M133 247L133 251L134 251L133 247M269.333 247.667L269.667 248.333L269.333 247.667M231.333 248.667L231.667 249.333L231.333 248.667M244 248L244 251L245 251L244 248M256.333 249.667L256.667 250.333L256.333 249.667M270 250L271 251L270 250M230.333 251.667L230.667 252.333L230.333 251.667M243 251L243 254L244 254L243 251M257.333 252.667L257.667 253.333L257.333 252.667M271.333 252.667L271.667 253.333L271.333 252.667M229 253L229 256L230 256L229 253M242 254L242 257L243 257L242 254M258.333 255.667L258.667 256.333L258.333 255.667M272 255L273 256L272 255M228.333 256.667L228.667 257.333L228.333 256.667M119 257L119 264L120 264L119 257M133 257L133 261L134 261L133 257M241.333 257.667L241.667 258.333L241.333 257.667M259 257L259 260L260 260L259 257M273.333 257.667L273.667 258.333L273.333 257.667M227.333 259.667L227.667 260.333L227.333 259.667M240.333 260.667L240.667 261.333L240.333 260.667M260.333 260.667L260.667 261.333L260.333 260.667M274.333 260.667L274.667 261.333L274.333 260.667M226.333 261.667L226.667 262.333L226.333 261.667M275.333 262.667L275.667 263.333L275.333 262.667M134.333 263.667L134.667 264.333L134.333 263.667M225.333 264.667L225.667 265.333L225.333 264.667M135.333 265.667L135.667 266.333L135.333 265.667M276.333 265.667L276.667 266.333L276.333 265.667M120.333 266.667L120.667 267.333L120.333 266.667M224 266L224 269L225 269L224 266M136.333 267.667L136.667 268.333L136.333 267.667M277.333 267.667L277.667 268.333L277.333 267.667M121.333 269.667L121.667 270.333L121.333 269.667M137 269L138 270L137 269M223.333 269.667L223.667 270.333L223.333 269.667M138 270L139 271L138 270M278.333 270.667L278.667 271.333L278.333 270.667M122.333 271.667L122.667 272.333L122.333 271.667M222 271L222 274L223 274L222 271M236 272L236 273L264 273L236 272M279.333 272.667L279.667 273.333L279.333 272.667M123.333 273.667L123.667 274.333L123.333 273.667M264 273L265 274L264 273M142 274L143 275L142 274M221.333 274.667L221.667 275.333L221.333 274.667M235.333 274.667L235.667 275.333L235.333 274.667M265.333 274.667L265.667 275.333L265.333 274.667M124 275L125 276L124 275M143 275L144 276L143 275M280.333 275.667L280.667 276.333L280.333 275.667M125 276L126 277L125 276M145 276L146 277L145 276M170.667 276.333L171.333 276.667L170.667 276.333M234.333 276.667L234.667 277.333L234.333 276.667M147.667 277.333L148.333 277.667L147.667 277.333M167.667 277.333L168.333 277.667L167.667 277.333M220.333 277.667L220.667 278.333L220.333 277.667M266.333 277.667L266.667 278.333L266.333 277.667M281.333 277.667L281.667 278.333L281.333 277.667M126 278L127 279L126 278M150 278L150 279L154 279L150 278M161 278L161 279L166 279L161 278M171 278L172 279L171 278M127 279L128 280L127 279M219.333 279.667L219.667 280.333L219.333 279.667M233.333 279.667L233.667 280.333L233.333 279.667M128 280L129 281L128 280M267.333 280.667L267.667 281.333L267.333 280.667M282.333 280.667L282.667 281.333L282.333 280.667M129 281L130 282L129 281M131 282L132 283L131 282M218.333 282.667L218.667 283.333L218.333 282.667M232.333 282.667L232.667 283.333L232.333 282.667M268.333 282.667L268.667 283.333L268.333 282.667M283 282L283 285L284 285L283 282M132 283L133 284L132 283M134 284L135 285L134 284M217.333 284.667L217.667 285.333L217.333 284.667M231.333 284.667L231.667 285.333L231.333 284.667M136 285L137 286L136 285M269.333 285.667L269.667 286.333L269.333 285.667M284.333 285.667L284.667 286.333L284.333 285.667M138 286L139 287L138 286M172 286L173 287L172 286M141.667 287.333L142.333 287.667L141.667 287.333M171 287L172 288L171 287M216 287L230 289L230 288L216 287M230 287L231 288L230 287M285 287L286 288L285 287M144 288L144 289L147 289L144 288M165 288L165 289L169 289L165 288M270 288L270 289L285 289L270 288M150 289L150 290L163 290L150 289M185 315L185 328L199 328L199 315L185 315z"/>
<path style="fill:#5e8581; stroke:none;" d="M186 316L186 327L198 327L198 316L186 316z"/>
<path style="fill:#9ea0a8; stroke:none;" d="M13 319L13 388L27 388L27 387L14 387L14 340L13 319z"/>
<path style="fill:#5e8581; stroke:none;" d="M14 319L14 387L27 387L26 349L27 320L26 319L14 319z"/>
<path style="fill:#9ea0a8; stroke:none;" d="M15 319L15 320L25 320L15 319M26 319L27 320L26 319M26 321L26 385L27 385L27 341L26 321M160 323L160 324C166.654 332.783 159.139 338 174 338L174 346C171.073 346 166.051 345.089 163.603 347.028C159.238 350.486 162 367.716 162 373L163 373L163 347L175 347L175 337L163 337L163 323L160 323M226 323L226 324C232.654 332.783 225.139 338 240 338L240 346C237.073 346 232.051 345.089 229.603 347.028C225.141 350.562 228 368.576 228 374L229 374L229 347L241 347L241 337L229 337L229 323L226 323M323 323L323 324C329.654 332.783 322.139 338 337 338L337 346C334.073 346 329.051 345.089 326.603 347.028C322.141 350.562 325 368.576 325 374L326 374L326 347L338 347L338 337L326 337L326 323L323 323M149 337L139 338L139 339L150 338L150 327L159 325C150.173 322.39 149.001 330.483 149 337z"/>
<path style="fill:#5e8581; stroke:none;" d="M150 327L150 338L140 338L140 346L150 346C150 356.911 145.493 380.321 157.04 386.547C162.808 389.657 168.859 388.264 175 388L175 378C161.521 381.471 162 368.823 162 359C162 355.694 161.019 350.188 163.603 347.603C166.028 345.179 170.887 346 174 346L174 338C162.766 337.999 162 334.569 162 324L150 327z"/>
<path style="fill:#9ea0a8; stroke:none;" d="M215 337L206 337L206 338C215.016 337.993 215.999 335.697 216 327L225 325C216.173 322.39 215.001 330.483 215 337z"/>
<path style="fill:#5e8581; stroke:none;" d="M216 327C215.994 335.185 214.524 337.97 206 338L206 346L216 346C216 357.766 211.153 382.08 225.004 387.437C230.409 389.527 235.453 388.238 241 388L241 379C227.416 379.292 228 370.231 228 359C228 355.694 227.019 350.188 229.603 347.603C232.028 345.179 236.887 346 240 346L240 338C228.766 337.999 228 334.569 228 324L216 327z"/>
<path style="fill:#9ea0a8; stroke:none;" d="M320.667 324.333L321.333 324.667L320.667 324.333z"/>
<path style="fill:#5e8581; stroke:none;" d="M313 327L313 338L303 338L303 346L313 346C313 357.823 308.126 382.109 322.001 387.437C327.415 389.516 332.445 388.238 338 388L338 379C324.268 379.79 325 370.037 325 359C325 355.694 324.019 350.188 326.603 347.603C329.028 345.179 333.887 346 337 346L337 338C325.766 337.999 325 334.569 325 324L313 327z"/>
<path style="fill:#9ea0a8; stroke:none;" d="M316 325L316 326L319 326L316 325M313 326L313 327L316 327L313 326M312 327L312 337L303 337L303 338L313 338L312 327M65 336L65 337L77 337L65 336M106 339L106 340L129 337C122.308 334.192 112.253 335.722 106 339M360 336L360 337L373 337L360 336M42 337L42 338L54 338L54 342C56.1467 335.449 45.9732 337 42 337M62.6667 337.333L63.3333 337.667L62.6667 337.333z"/>
<path style="fill:#5e8581; stroke:none;" d="M54 344L54 338L42 338L42 387L55 387C52.8481 377.961 52.1744 362.52 56.4568 354C59.2276 348.488 66.1181 343.171 71.7724 348.318C79.9632 355.774 76 376.959 76 387L88 387C88 369.361 93.9456 327.35 63.0008 337.854C59.4495 339.06 56.8492 341.698 54 344z"/>
<path style="fill:#9ea0a8; stroke:none;" d="M78.6667 337.333L79.3333 337.667L78.6667 337.333z"/>
<path style="fill:#5e8581; stroke:none;" d="M101 377L101 387C109.412 388.063 117.82 389.879 126 386.517C134.601 382.982 139.196 372.143 133.297 364.105C129.356 358.734 114.752 357.938 114.037 351C113.105 341.959 128.798 346.133 133 347L133 338C128.631 337.189 124.439 336.993 120 337C108.378 337.018 91.3129 348.054 103.279 360.786C107.932 365.737 119.325 365.27 121.824 372.043C126.103 383.644 104.9 378.064 101 377z"/>
<path style="fill:#9ea0a8; stroke:none;" d="M130 337L130 338L133 338L130 337M185 337L185 388L199 388L199 337L185 337M249 340L250 340L262 338L262 368L263 368L263 337C258.255 337 251.853 335.6 249 340M283 337L283 366L284 366L284 338L296 338L296 387L284 387L284 388L297 388L297 352L295.972 338.603L283 337M357.667 337.333L358.333 337.667L357.667 337.333z"/>
<path style="fill:#5e8581; stroke:none;" d="M386 376C373.947 378.855 356.915 384.58 355 366L390 366C389.822 357.39 388.25 346.237 380.907 340.649C364.953 328.508 343.865 341.792 343.039 360C342.571 370.335 344.843 380.833 355 385.672C366.37 391.09 385.988 391.642 386 376z"/>
<path style="fill:#9ea0a8; stroke:none;" d="M374.667 337.333L375.333 337.667L374.667 337.333M60 338L61 339L60 338M80 338L81 339L80 338M133 338L133 344L134 344L133 338z"/>
<path style="fill:#5e8581; stroke:none;" d="M186 338L186 387L198 387L198 338L186 338M250 338C250 354.956 244.525 398.839 274.999 387.045C278.49 385.694 281.128 383.301 284 381L284 387L296 387L296 338L284 338C284 348.425 285.976 361.173 281.867 370.999C279.899 375.703 274.544 380.896 269.015 378.589C257.602 373.825 262 347.817 262 338L250 338z"/>
<path style="fill:#9ea0a8; stroke:none;" d="M302 338L303 339L302 338M355 338L356 339L355 338M377.667 338.333L378.333 338.667L377.667 338.333M59 339L60 340L59 339M82 339L83 340L82 339M353 339L354 340L353 339M379 339L380 340L379 339M57 340L58 341L57 340M83 340L84 341L83 340M104 340L105 341L104 340M351 340L352 341L351 340M56 341L57 342L56 341M84 341L85 342L84 341M103 341L104 342L103 341M139 341L140 342L139 341M249 341L249 369L250 369L249 341M350 341L351 342L350 341M382 341L383 342L382 341M102 342L103 343L102 342M349 342L350 343L349 342M383 342L384 343L383 342M54.6667 343.333L55.3333 343.667L54.6667 343.333M85 343L86 344L85 343M348 343L349 344L348 343M101 344L102 345L101 344M384 344L385 345L384 344M86 345L87 346L86 345M100 345L100 348L101 348L100 345M118 345L118 346L127 346L118 345M139 345L140 346L139 345M302 345L303 346L302 345M347 345L348 346L347 345M360 347L360 348L372 347C368.047 344.3 364.15 345.003 360 347M385 345L386 346L385 345M62 346L62 347L65 347L62 346M68 346L68 347L71 347L68 346M115.667 346.333L116.333 346.667L115.667 346.333M128 346L128 347L131 347L128 346M140 346L140 347L149 347L149 375L150 375L150 346L140 346M206 346L206 347L215 347L215 376L216 376L216 346L206 346M303 346L303 347L312 347L312 376L313 376L313 346L303 346M346 346L347 347L346 346z"/>
<path style="fill:#fefefe; stroke:none;" d="M356 358L377 358C376.183 342.29 353.847 343.157 356 358z"/>
<path style="fill:#9ea0a8; stroke:none;" d="M61 347L62 348L61 347M71 347L72 348L71 347M87 347L87 350L88 350L87 347M114 347L115 348L114 347M131.667 347.333L132.333 347.667L131.667 347.333M373 347L374 348L373 347M386 347L387 348L386 347M72 348L73 349L72 348M345 348L346 349L345 348M358 348L359 349L358 348M374 348L375 349L374 348M73 349L74 350L73 349M99 349L99 355L100 355L99 349M113 349L113 353L114 353L113 349M357 349L358 350L357 349M387.333 349.667L387.667 350.333L387.333 349.667M58 350L59 351L58 350M344.333 350.667L344.667 351.333L344.333 350.667M375 350L376 351L375 350M57 351L58 352L57 351M74.3333 351.667L74.6667 352.333L74.3333 351.667M356 351L357 352L356 351M376.333 351.667L376.667 352.333L376.333 351.667M388 351L388 354L389 354L388 351M88 352L88 387L76 387L76 355L75 355L75 388L89 388C89 377.613 92.0114 361.56 88 352M56.3333 353.667L56.6667 354.333L56.3333 353.667M343 353L343 356L344 356L343 353M355.333 353.667L355.667 354.333L355.333 353.667M115 354L116 355L115 354M377 354L377 358L378 358L377 354M55 355L55 360L56 360L55 355M116.667 355.333L117.333 355.667L116.667 355.333M100.333 356.667L100.667 357.333L100.333 356.667M119.667 356.333L120.333 356.667L119.667 356.333M389 356L389 360L390 360L389 356M122.667 357.333L123.333 357.667L122.667 357.333M355 357L356 358L355 357M357 357L357 358L364 358L357 357M125 358L126 359L125 358M342 358L342 368L343 368L342 358M101 359L102 360L101 359M127.667 359.333L128.333 359.667L127.667 359.333M102 360L103 361L102 360M129 360L130 361L129 360M103 361L104 362L103 361M131 361L132 362L131 361M54 362L54 386L55 386L54 362M104 362L105 363L104 362M132 362L133 363L132 362M106 363L107 364L106 363M133 363L134 364L133 363M108 364L109 365L108 364M110.667 365.333L111.333 365.667L110.667 365.333M134 365L135 366L134 365M113.667 366.333L114.333 366.667L113.667 366.333M135 366L135 369L136 369L135 366M355 366L355 367L390 367L355 366M117 367L118 368L117 367M282 367L282 370L283 370L282 367M119 368L120 369L119 368M355.333 369.667L355.667 370.333L355.333 369.667M343 370L343 373L344 373L343 370M122 371L122 376L123 376L122 371M136 371L136 374L137 374L136 371M281.333 371.667L281.667 372.333L281.333 371.667M263.333 372.667L263.667 373.333L263.333 372.667M356 372L357 373L356 372M280.333 373.667L280.667 374.333L280.333 373.667M250 374L250 377L251 377L250 374M344 374L345 375L344 374M357 374L358 375L357 374M163 375L164 376L163 375M229 375L230 376L229 375M264 375L265 376L264 375M279 375L280 376L279 375M326.333 375.667L326.667 376.333L326.333 375.667M358 375L359 376L358 375M384 375L384 376L386 385L387 385L387 375L384 375M101 376L102 377L101 376M121 376L122 377L121 376M135 376L135 379L136 379L135 376M265 376L266 377L265 376M278 376L279 377L278 376M345 376L346 377L345 376M359 376L360 377L359 376M382.667 376.333L383.333 376.667L382.667 376.333M100 377L100 387L101 387L100 377M103.667 377.333L104.333 377.667L103.667 377.333M120 377L121 378L120 377M150 377L150 380L151 380L150 377M164 377L165 378L164 377M216 377L216 380L217 380L216 377M230 377L231 378L230 377M266 377L267 378L266 377M276.667 377.333L277.333 377.667L276.667 377.333M313 377L313 380L314 380L313 377M327 377L328 378L327 377M360.667 377.333L361.333 377.667L360.667 377.333M379.667 377.333L380.333 377.667L379.667 377.333M105 378L105 379L108 379L105 378M118.667 378.333L119.333 378.667L118.667 378.333M166 378L167 379L166 378M171 378L171 379L174 379L171 378M231.667 378.333L232.333 378.667L231.667 378.333M237 378L237 379L241 379L237 378M251.333 378.667L251.667 379.333L251.333 378.667M267 378L267 379L270 379L267 378M274.667 378.333L275.333 378.667L274.667 378.333M328.667 378.333L329.333 378.667L328.667 378.333M334 378L334 379L338 379L334 378M346 378L347 379L346 378M362.667 378.333L363.333 378.667L362.667 378.333M376 378L376 379L379 379L376 378M108 379L108 380L118 380L108 379M134.333 379.667L134.667 380.333L134.333 379.667M168.667 379.333L169.333 379.667L168.667 379.333M234.667 379.333L235.333 379.667L234.667 379.333M270 379L270 380L273 380L270 379M331 379L331 380L334 380L331 379M364 379L364 380L375 380L364 379M240 380L241 381L240 380M337 380L337 383L338 383L337 380M133 381L134 382L133 381M151 381L152 382L151 381M217 381L218 382L217 381M252 381L253 382L252 381M282.667 381.333L283.333 381.667L282.667 381.333M314 381L315 382L314 381M348 381L349 382L348 381M132 382L133 383L132 382M152.333 382.667L152.667 383.333L152.333 382.667M218.333 382.667L218.667 383.333L218.333 382.667M253 382L254 383L253 382M349 382L350 383L349 382M131 383L132 384L131 383M281 383L282 384L281 383M315 383L316 384L315 383M350 383L351 384L350 383M130 384L131 385L130 384M153 384L154 385L153 384M219 384L220 385L219 384M241 384L241 388L242 388L241 384M254 384L255 385L254 384M316 384L317 385L316 384M352 384L353 385L352 384M128.667 385.333L129.333 385.667L128.667 385.333M154 385L155 386L154 385M220 385L221 386L220 385M255 385L256 386L255 385M278 385L279 386L278 385M317 385L318 386L317 385M353.667 385.333L354.333 385.667L353.667 385.333M385 385L386 386L385 385M126.667 386.333L127.333 386.667L126.667 386.333M156 386L157 387L156 386M175 386L176 387L175 386M222 386L223 387L222 386M257 386L258 387L257 386M276.667 386.333L277.333 386.667L276.667 386.333M318.667 386.333L319.333 386.667L318.667 386.333M338 386L339 387L338 386M355.667 386.333L356.333 386.667L355.667 386.333M382.667 386.333L383.333 386.667L382.667 386.333M42 387L42 388L55 388L42 387M101 387L101 388L105 388L101 387M123 387L123 388L126 388L123 387M157.667 387.333L158.333 387.667L157.667 387.333M223.667 387.333L224.333 387.667L223.667 387.333M258.667 387.333L259.333 387.667L258.667 387.333M274.667 387.333L275.333 387.667L274.667 387.333M320.667 387.333L321.333 387.667L320.667 387.333M357 387L357 388L360 388L357 387M379 387L379 388L382 388L379 387M106 388L106 389L113 389L106 388M117 388L117 389L123 389L117 388M159 388L159 389L164 389L159 388M169 388L169 389L175 389L169 388M225 388L225 389L229 389L225 388M235 388L235 389L240 389L235 388M261 388L261 389L264 389L261 388M269 388L269 389L273 389L269 388M322 388L322 389L326 389L322 388M332 388L332 389L338 389L332 388M360 388L360 389L365 389L360 388M373 388L373 389L378 389L373 388M327 389L327 390L330 390L327 389M367 389L367 390L370 390L367 389z"/>
</svg>
