<?xml version="1.0" standalone="no"?>
<!DOCTYPE svg PUBLIC "-//W3C//DTD SVG 20010904//EN"
 "http://www.w3.org/TR/2001/REC-SVG-20010904/DTD/svg10.dtd">
<svg version="1.0" xmlns="http://www.w3.org/2000/svg"
 width="300.000000pt" height="154.000000pt" viewBox="0 0 300.000000 154.000000"
 preserveAspectRatio="xMidYMid meet">
<metadata>
Created by potrace 1.10, written by Peter Selinger 2001-2011
</metadata>
<g transform="translate(0.000000,154.000000) scale(0.100000,-0.100000)"
fill="#000000" stroke="none">
<path d="M0 1527 c0 -5 9 -7 20 -4 11 3 23 1 26 -4 3 -5 10 -7 15 -4 19 12 8
22 -26 22 -19 0 -35 -5 -35 -10z"/>
<path d="M95 1530 c-2 -4 14 -7 36 -8 22 -1 38 2 34 7 -6 11 -64 12 -70 1z"/>
<path d="M235 1531 c-2 -4 27 -8 66 -8 38 -1 69 2 69 6 0 9 -129 11 -135 2z"/>
<path d="M600 1529 c0 -5 21 -9 47 -9 25 0 43 3 39 7 -11 11 -86 13 -86 2z"/>
<path d="M770 1528 c0 -4 20 -7 45 -6 25 0 45 4 45 8 0 4 -20 7 -45 6 -25 0
-45 -4 -45 -8z"/>
<path d="M925 1530 c-2 -4 26 -8 63 -9 36 -1 63 1 58 6 -9 10 -115 12 -121 3z"/>
<path d="M1065 1529 c7 -10 164 -9 170 1 3 5 -34 8 -84 7 -49 -1 -88 -4 -86
-8z"/>
<path d="M1304 1529 c-3 -5 20 -8 51 -7 30 1 55 5 55 9 0 10 -100 8 -106 -2z"/>
<path d="M1630 1523 c0 -11 5 -13 18 -8 9 4 32 7 50 6 17 -1 32 2 32 6 0 5
-22 9 -50 10 -38 1 -50 -2 -50 -14z"/>
<path d="M1744 1529 c-3 -5 29 -9 70 -9 41 0 77 4 80 8 3 5 -29 9 -70 9 -41 0
-77 -3 -80 -8z"/>
<path d="M2080 1529 c0 -4 25 -9 55 -11 30 -1 55 -1 55 2 0 3 23 4 50 4 28 -1
50 2 50 6 0 4 -47 7 -105 7 -58 -1 -105 -4 -105 -8z"/>
<path d="M2310 1531 c0 -4 23 -7 50 -8 28 0 50 3 50 7 0 4 -22 7 -50 7 -27 0
-50 -3 -50 -6z"/>
<path d="M2565 1530 c-2 -4 14 -7 38 -7 23 0 62 -1 87 -2 87 -3 104 -2 96 6
-10 10 -215 13 -221 3z"/>
<path d="M2804 1529 c-2 -4 0 -10 6 -14 5 -3 10 -3 10 2 0 4 18 7 40 7 22 -1
40 2 40 6 0 10 -89 9 -96 -1z"/>
<path d="M2910 1527 c0 -5 9 -7 21 -4 15 4 19 2 15 -9 -3 -8 -1 -14 4 -14 6 0
10 9 10 20 0 15 -6 19 -25 18 -14 -1 -25 -6 -25 -11z"/>
<path d="M2951 1396 c-1 -55 1 -97 3 -95 9 9 14 156 6 174 -6 13 -9 -14 -9
-79z"/>
<path d="M90 1460 c15 -10 14 -10 -22 -14 -7 0 -14 -15 -16 -33 -4 -41 32 -69
70 -54 61 23 43 111 -23 111 -19 0 -21 -2 -9 -10z m26 -79 c-10 -16 -31 -14
-46 4 -10 12 -10 18 0 31 12 13 15 13 33 -4 11 -11 16 -25 13 -31z"/>
<path d="M203 1432 c-29 -30 -2 -67 41 -56 25 6 39 44 16 44 -5 0 -10 -7 -10
-15 0 -8 -9 -15 -20 -15 -30 0 -27 40 3 41 12 1 25 1 30 0 4 0 7 3 7 8 0 13
-52 8 -67 -7z"/>
<path d="M616 1434 c-9 -8 -16 -12 -16 -7 0 4 -6 -1 -12 -12 -11 -19 -11 -19
-19 0 -5 14 -7 6 -6 -22 2 -32 5 -39 15 -31 6 6 12 17 12 24 0 8 5 14 10 14 6
0 10 -4 10 -9 0 -14 32 -23 43 -12 7 7 15 7 24 -1 18 -14 36 2 31 28 -5 27
-38 31 -45 5 -7 -28 -43 -28 -43 -1 0 14 7 20 21 20 11 0 17 5 14 10 -9 14
-21 12 -39 -6z"/>
<path d="M993 1443 c-18 -7 -16 -24 5 -39 16 -13 16 -13 -2 -14 -15 0 -17 -3
-8 -12 8 -8 15 -8 27 2 11 9 18 10 29 1 9 -8 16 -8 20 -2 4 5 -2 12 -11 14
-16 4 -16 5 1 6 11 0 28 -6 38 -16 10 -9 21 -13 25 -9 4 4 1 11 -7 16 -11 7
-11 11 -1 24 8 10 9 16 3 16 -6 0 -14 -5 -17 -10 -5 -8 -11 -7 -21 1 -11 9
-18 8 -32 -4 -13 -12 -21 -13 -37 -5 -19 11 -19 11 0 18 10 4 14 9 9 12 -5 3
-15 3 -21 1z"/>
<path d="M1441 1419 c-1 -40 19 -58 39 -34 15 19 4 49 -14 42 -9 -4 -17 1 -19
11 -3 9 -5 1 -6 -19z"/>
<path d="M1682 1438 c-17 -17 -15 -55 5 -62 9 -4 21 -2 27 4 7 7 3 10 -12 10
-28 0 -30 30 -2 37 11 3 17 9 14 14 -7 12 -18 11 -32 -3z"/>
<path d="M2730 1443 c0 -6 7 -16 15 -23 14 -12 14 -15 -1 -31 -19 -21 -6 -27
14 -7 9 9 15 9 24 0 21 -21 32 -13 13 8 -18 20 -18 21 1 35 10 8 14 15 9 15
-6 0 -16 -5 -23 -12 -9 -9 -16 -7 -32 7 -11 10 -20 13 -20 8z"/>
<path d="M452 1415 c-17 -36 -15 -50 3 -35 8 7 22 10 30 6 8 -3 15 -3 15 -1 0
11 -24 55 -30 55 -4 0 -12 -11 -18 -25z"/>
<path d="M1295 1410 c0 -16 3 -30 8 -30 4 0 7 3 7 8 0 4 3 17 6 30 4 15 2 22
-7 22 -9 0 -14 -11 -14 -30z"/>
<path d="M1345 1420 c-4 -11 -11 -18 -16 -15 -5 4 -9 2 -9 -4 0 -18 18 -21 25
-3 7 16 8 15 15 -3 7 -17 9 -14 9 13 1 36 -14 43 -24 12z"/>
<path d="M1570 1410 c0 -16 5 -32 10 -35 7 -4 9 2 4 19 -3 15 -2 26 4 26 13 0
25 -47 16 -63 -4 -7 0 -5 9 3 9 8 19 29 23 45 6 29 6 29 -9 10 -14 -17 -16
-17 -17 -4 0 9 -9 19 -20 22 -17 4 -20 0 -20 -23z"/>
<path d="M1880 1410 c0 -30 14 -48 24 -31 4 5 0 11 -6 14 -10 3 -10 7 0 19 10
13 10 17 -3 22 -11 4 -15 -2 -15 -24z"/>
<path d="M2390 1405 c0 -33 2 -35 35 -35 33 0 35 2 35 35 0 33 -2 35 -35 35
-33 0 -35 -2 -35 -35z m60 0 c0 -20 -5 -25 -25 -25 -20 0 -25 5 -25 25 0 20 5
25 25 25 20 0 25 -5 25 -25z"/>
<path d="M284 1403 c2 -16 5 -30 5 -32 1 -3 6 0 13 7 8 8 15 9 25 1 9 -8 17
-8 26 0 10 8 17 7 25 -1 16 -16 35 3 30 28 -5 27 -38 31 -45 5 -3 -12 -12 -21
-19 -21 -17 0 -18 12 -2 28 9 9 9 12 0 12 -6 0 -15 -7 -20 -16 -5 -9 -15 -14
-21 -10 -6 4 -9 12 -6 17 4 5 1 9 -5 9 -6 0 -9 -12 -6 -27z"/>
<path d="M511 1403 c1 -17 3 -21 6 -10 2 9 8 17 13 17 5 0 11 -8 14 -17 3 -11
4 -8 3 7 -1 15 -9 26 -19 28 -14 3 -18 -3 -17 -25z"/>
<path d="M720 1405 c0 -31 17 -33 23 -2 l4 22 2 -22 c1 -31 41 -32 41 -2 0 11
4 18 10 14 5 -3 6 -13 3 -22 -5 -12 -2 -15 9 -11 9 4 20 2 26 -4 6 -6 16 -7
23 -2 9 5 8 9 -7 15 -17 7 -17 8 -1 8 9 1 17 5 17 10 0 16 -20 23 -34 12 -9
-7 -16 -7 -24 1 -10 10 -17 10 -32 0 -12 -7 -20 -8 -20 -2 0 5 -9 10 -20 10
-15 0 -20 -7 -20 -25z"/>
<path d="M887 1423 c-11 -10 -8 -41 4 -49 6 -3 16 -1 22 5 8 8 6 11 -6 11 -20
0 -22 11 -5 28 7 7 8 12 2 12 -6 0 -14 -3 -17 -7z"/>
<path d="M1131 1408 c-1 -25 2 -28 33 -28 28 0 34 4 38 24 4 20 1 23 -19 22
-15 -1 -23 -7 -23 -18 0 -26 -18 -22 -23 5 -4 19 -4 18 -6 -5z"/>
<path d="M1227 1424 c-10 -11 -8 -42 3 -49 6 -3 15 -3 22 1 8 5 6 10 -8 15
-18 7 -18 8 -1 8 10 1 17 6 15 13 -5 14 -22 21 -31 12z"/>
<path d="M1387 1424 c-12 -12 -8 -42 6 -47 21 -8 39 8 35 29 -3 19 -29 30 -41
18z"/>
<path d="M1777 1410 c-14 -20 -16 -21 -20 -3 -4 14 -5 13 -6 -6 -1 -16 3 -22
14 -18 8 4 17 2 20 -4 4 -5 11 -6 18 -2 7 4 4 9 -9 14 -17 7 -17 8 4 8 14 1
22 6 20 13 -7 21 -26 20 -41 -2z"/>
<path d="M1828 1405 c-3 -14 -2 -25 3 -25 4 0 9 10 12 23 4 22 4 22 15 -3 l12
-25 -3 25 c-3 34 -33 38 -39 5z"/>
<path d="M2060 1410 c0 -5 16 -10 35 -10 19 0 35 5 35 10 0 6 -16 10 -35 10
-19 0 -35 -4 -35 -10z"/>
<path d="M2 1283 c2 -12 14 -19 33 -21 57 -5 61 -11 32 -38 l-27 -25 0 -423
c0 -408 1 -424 20 -449 29 -37 25 -47 -20 -47 -29 0 -40 -4 -40 -15 0 -13 170
-15 1470 -15 l1470 0 0 525 0 525 -1471 0 c-1395 0 -1470 -1 -1467 -17z m1783
-33 c-36 -7 -145 -3 -154 6 -2 2 40 3 95 3 76 -1 90 -3 59 -9z m170 -1 c-16
-5 -43 -7 -58 -5 -52 8 -40 15 24 14 54 0 59 -2 34 -9z m604 7 c-9 -8 -259
-13 -259 -5 0 5 59 9 132 9 72 0 129 -2 127 -4z m351 -119 c3 -76 1 -116 -5
-114 -5 2 -11 42 -13 88 -2 62 -8 91 -21 109 -18 24 -21 25 -144 25 -69 0
-129 3 -133 8 -4 4 64 6 152 5 l159 -3 5 -118z m-50 -367 l0 -440 -1395 0
-1395 0 0 440 0 440 1395 0 1395 0 0 -440z m60 -287 c0 -183 -1 -192 -20 -198
-11 -4 -29 -4 -40 0 -19 6 -19 7 5 33 16 17 25 39 26 62 0 19 2 96 3 170 4
159 4 159 16 140 5 -8 9 -101 10 -207z m-1960 -193 c0 -5 -14 -10 -31 -10 -17
0 -28 4 -24 10 3 6 17 10 31 10 13 0 24 -4 24 -10z m1495 0 c-28 -12 -55 -12
-55 0 0 6 17 10 38 9 30 0 33 -2 17 -9z"/>
<path d="M441 1124 c-40 -50 -18 -114 44 -130 50 -12 103 48 89 102 -14 57
-97 74 -133 28z m99 -32 c-5 -9 -21 -30 -34 -47 -25 -28 -25 -29 -45 -10 -27
24 -27 39 0 32 15 -4 28 2 46 24 26 30 51 31 33 1z"/>
<path d="M298 1101 c-26 -23 -33 -38 -38 -85 l-6 -56 31 0 c29 0 30 1 27 39
-3 30 1 43 19 60 13 11 33 21 46 21 13 0 23 5 23 10 0 6 -18 10 -39 10 -32 0
-44 -6 -65 -31 -27 -32 -33 -31 -15 2 5 11 25 29 42 39 18 11 26 20 20 20 -7
0 -27 -13 -45 -29z"/>
<path d="M703 1060 c14 -36 24 -38 37 -7 l9 22 0 -22 c1 -27 7 -29 29 -6 16
16 17 16 20 0 4 -20 18 -22 25 -4 4 10 6 10 6 0 2 -29 21 -10 20 20 -1 18 -3
24 -6 14 -5 -18 -5 -18 -19 0 -12 16 -15 16 -24 3 -6 -10 -10 -11 -10 -2 0 18
-47 15 -58 -4 -8 -15 -10 -15 -15 0 -4 9 -11 16 -16 16 -5 0 -5 -13 2 -30z"/>
<path d="M436 974 c-4 -10 3 -14 29 -14 43 0 44 5 6 18 -23 8 -31 7 -35 -4z"/>
<path d="M220 866 c0 -57 3 -111 6 -120 5 -13 28 -16 147 -15 85 0 146 4 154
11 16 13 19 218 3 218 -5 0 -10 -11 -10 -24 0 -15 -7 -26 -17 -29 -17 -4 -17
-5 0 -6 9 0 17 -5 17 -11 0 -5 -8 -10 -17 -11 -15 0 -15 -2 2 -9 12 -5 -35 -9
-125 -9 -97 -1 -140 3 -130 9 10 6 11 10 3 10 -19 0 -16 18 5 23 16 4 16 5 0
6 -13 1 -18 10 -18 31 0 17 -4 30 -10 30 -6 0 -10 -41 -10 -104z m233 -23
c-40 -2 -106 -2 -145 0 -40 1 -8 3 72 3 80 0 112 -2 73 -3z m-11 -20 c-40 -2
-103 -2 -140 0 -37 2 -4 3 73 3 77 0 107 -2 67 -3z m78 -38 l0 -25 -145 0
c-81 0 -145 4 -145 9 0 39 9 41 151 41 l139 0 0 -25z"/>
<path d="M707 953 c-11 -11 -8 -51 5 -55 6 -2 24 -2 40 0 23 4 28 9 26 26 -2
14 -9 20 -20 18 -10 -2 -18 2 -18 8 0 11 -23 14 -33 3z"/>
<path d="M1030 945 c-7 -8 -17 -12 -24 -8 -16 11 -69 11 -83 1 -7 -5 -14 -5
-18 2 -5 8 -11 7 -23 -2 -11 -10 -16 -10 -19 -1 -7 20 -33 3 -32 -21 1 -16 2
-17 6 -3 2 9 9 17 15 17 5 0 8 -7 4 -15 -7 -18 5 -20 22 -3 10 10 17 10 32 0
11 -6 39 -12 62 -11 33 0 38 2 23 9 -16 7 -17 9 -3 9 9 1 20 -3 23 -9 3 -5 15
-10 26 -10 14 0 19 7 19 30 0 33 -11 38 -30 15z"/>
<path d="M1328 946 c-10 -7 -18 -18 -18 -25 0 -19 -17 -12 -23 10 -5 17 -9 19
-26 10 -12 -7 -22 -7 -26 -1 -6 10 -36 2 -47 -14 -5 -7 -8 -7 -8 2 0 6 -5 12
-10 12 -7 0 -7 -7 0 -21 10 -17 14 -18 28 -7 13 11 15 11 9 -4 -3 -10 -2 -20
3 -23 4 -3 10 -1 12 4 1 5 10 11 18 13 8 2 18 10 22 18 5 12 7 12 7 -2 1 -14
10 -18 41 -18 38 0 40 2 40 30 0 34 1 34 -22 16z"/>
<path d="M1401 935 c-1 -29 2 -31 37 -33 27 -2 33 0 22 8 -13 8 -12 10 4 10
15 0 16 3 6 15 -12 14 -15 14 -31 -1 -18 -16 -19 -15 -28 7 -9 23 -10 23 -10
-6z"/>
<path d="M1560 945 c-9 -10 -17 -12 -23 -6 -12 12 -37 3 -37 -14 0 -7 -6 -16
-12 -18 -7 -3 11 -6 40 -6 51 -1 52 -1 52 29 0 34 -3 36 -20 15z"/>
<path d="M1080 924 c0 -20 5 -24 31 -24 25 0 30 3 27 21 -2 15 -11 23 -30 25
-24 2 -28 -1 -28 -22z"/>
<path d="M1591 923 c-1 -20 4 -23 32 -22 17 0 26 3 20 6 -7 2 -13 11 -13 19 0
20 -20 17 -21 -3 0 -15 -2 -15 -9 2 -8 19 -9 19 -9 -2z"/>
<path d="M2080 680 l0 -90 350 0 350 0 0 90 0 90 -350 0 -350 0 0 -90z m690
-5 l0 -75 -340 0 -340 0 0 75 0 75 340 0 340 0 0 -75z"/>
<path d="M2240 685 c0 -30 24 -43 45 -25 10 8 15 9 15 2 0 -7 26 -10 70 -9 62
2 70 4 71 22 1 17 2 16 9 -5 l8 -25 1 26 c1 25 0 26 -69 26 -45 0 -66 -4 -58
-9 8 -6 4 -7 -12 -2 -14 4 -26 11 -28 15 -2 5 -15 9 -28 9 -19 0 -24 -5 -24
-25z"/>
<path d="M2575 700 c-11 -4 -39 -6 -62 -4 -41 4 -43 3 -42 -24 l1 -27 8 25 c4
14 9 22 10 18 3 -11 7 -27 9 -35 0 -4 6 -2 13 5 7 7 19 12 28 11 10 0 9 -3 -5
-8 -14 -6 -3 -8 33 -8 36 0 49 4 43 10 -7 7 -7 15 -1 23 14 15 -8 24 -35 14z"/>
<path d="M1948 753 l72 -4 0 -74 0 -75 -417 -3 -418 -2 420 0 420 0 0 80 0 80
-75 1 -75 1 73 -4z"/>
<path d="M888 701 c-10 -10 -18 -23 -18 -29 0 -20 -17 -13 -23 8 -6 22 -37 28
-37 8 0 -10 -3 -10 -9 0 -10 17 -43 12 -49 -7 -3 -9 0 -11 8 -6 9 5 10 2 5
-14 -8 -25 7 -28 29 -5 12 12 16 12 17 2 1 -7 5 -2 9 12 7 23 8 23 9 3 1 -19
7 -22 41 -21 39 0 40 1 40 34 0 39 1 39 -22 15z"/>
<path d="M961 686 c-1 -37 0 -38 14 -20 16 22 20 38 6 29 -5 -3 -12 3 -14 12
-3 10 -5 0 -6 -21z"/>
<path d="M1128 708 c-3 -7 -18 -12 -34 -13 -22 0 -29 -5 -29 -20 0 -16 7 -20
38 -22 36 -2 37 -1 37 32 0 36 -5 45 -12 23z"/>
<path d="M921 678 c-1 -19 4 -28 14 -28 10 0 15 9 14 28 -2 27 -2 27 -7 2 l-5
-25 -8 25 -7 25 -1 -27z"/>
<path d="M992 680 c-17 -28 -16 -30 16 -30 21 0 24 2 12 10 -10 6 -11 10 -2
10 6 0 12 7 12 15 0 21 -23 19 -38 -5z"/>
<path d="M1151 678 c-1 -22 4 -28 19 -28 15 0 20 7 20 25 0 31 -20 33 -21 3
-1 -22 -1 -22 -9 2 l-8 25 -1 -27z"/>
<path d="M1008 593 c17 -2 47 -2 65 0 17 2 3 4 -33 4 -36 0 -50 -2 -32 -4z"/>
<path d="M507 453 c-9 -9 -9 -71 1 -76 4 -3 7 15 7 39 0 24 0 44 -1 44 0 0 -4
-3 -7 -7z"/>
<path d="M156 434 c-3 -8 -3 -21 0 -29 7 -17 34 -20 34 -4 0 8 5 7 15 -1 19
-16 39 -1 33 26 -4 23 -73 30 -82 8z"/>
<path d="M280 435 c-7 -9 -11 -17 -9 -18 2 -1 12 -9 22 -16 15 -12 17 -10 17
18 0 34 -11 39 -30 16z"/>
<path d="M325 442 c16 -11 17 -34 3 -43 -10 -7 -9 -9 5 -9 12 0 17 8 17 30 0
22 -5 30 -17 30 -10 0 -14 -4 -8 -8z"/>
<path d="M430 436 c0 -8 5 -18 10 -21 6 -4 7 -11 4 -17 -4 -6 -1 -9 7 -6 8 2
15 17 17 31 3 22 -1 27 -17 27 -12 0 -21 -6 -21 -14z"/>
<path d="M575 443 c16 -13 17 -35 3 -45 -9 -7 -7 -8 7 -6 28 5 28 52 0 56 -11
2 -16 0 -10 -5z"/>
<path d="M630 420 c0 -16 5 -30 10 -30 6 0 10 7 10 15 0 8 5 15 10 15 6 0 10
-6 10 -13 0 -16 42 -20 52 -4 6 9 8 9 8 0 0 -23 47 -15 53 8 5 18 8 19 20 8
11 -10 12 -16 3 -21 -7 -5 -6 -8 5 -8 22 0 28 8 22 31 -9 32 -72 24 -86 -11
-3 -9 -6 -6 -6 10 -1 20 -3 22 -11 10 -8 -12 -10 -12 -10 -1 0 8 -7 11 -20 8
-11 -3 -20 0 -20 6 0 7 -5 6 -11 -3 -8 -11 -12 -12 -16 -2 -9 23 -23 12 -23
-18z"/>
<path d="M904 435 c-8 -19 2 -45 16 -45 16 0 24 31 10 40 -10 6 -9 9 1 13 10
4 8 6 -4 6 -10 1 -20 -6 -23 -14z"/>
<path d="M971 419 c0 -21 3 -28 7 -19 9 20 32 24 32 5 0 -25 38 -18 43 8 4 21
5 21 11 2 9 -26 53 -32 59 -7 4 16 5 16 6 0 1 -13 9 -18 29 -18 18 0 23 3 14
9 -11 7 -11 9 0 13 7 3 19 3 27 0 11 -4 11 -6 0 -13 -11 -7 -10 -9 4 -9 9 0
17 7 17 15 0 8 -6 15 -12 15 -10 0 -9 3 1 9 9 6 3 8 -19 7 -23 -1 -36 -8 -41
-21 -9 -20 -9 -20 -6 0 3 34 -30 36 -36 3 -3 -22 -4 -22 -13 -3 -5 11 -15 21
-23 23 -62 13 -71 14 -71 2 0 -10 -3 -10 -15 0 -13 11 -15 8 -14 -21z"/>
<path d="M1250 418 c0 -23 3 -29 9 -19 6 9 11 10 15 2 4 -6 19 -11 34 -11 21
0 24 2 12 10 -13 8 -13 10 2 10 9 0 19 -6 21 -12 3 -8 6 -6 6 5 1 9 6 17 11
17 6 0 10 -8 11 -17 1 -12 4 -10 9 7 7 21 8 22 9 5 1 -14 9 -21 26 -23 21 -1
25 3 25 23 0 29 -26 35 -33 8 -4 -15 -5 -15 -6 -2 -2 25 -92 23 -98 -2 -3 -10
-9 -17 -13 -14 -5 3 -6 14 -3 25 4 15 0 20 -16 20 -17 0 -21 -6 -21 -32z"/>
<path d="M1451 423 c-1 -38 28 -48 30 -10 1 21 1 21 9 -3 l8 -25 1 29 c1 23
-2 27 -19 23 -10 -3 -21 0 -24 7 -2 6 -5 -4 -5 -21z"/>
<path d="M1511 423 c-1 -38 13 -44 24 -10 l8 22 4 -23 c2 -12 9 -20 14 -17 5
4 9 1 9 -4 0 -6 7 -11 15 -11 10 0 15 10 15 30 0 20 -5 30 -15 30 -8 0 -15 -5
-15 -11 0 -5 5 -7 10 -4 6 3 10 -2 10 -11 0 -15 -3 -14 -24 5 -14 13 -29 20
-34 17 -6 -3 -13 0 -15 6 -3 7 -6 -2 -6 -19z"/>
<path d="M2640 418 c0 -23 3 -29 9 -19 5 8 7 21 4 30 -3 9 5 4 17 -11 19 -22
25 -25 42 -15 15 10 21 9 28 -3 7 -11 10 -7 10 18 0 37 -8 40 -36 13 -20 -18
-21 -18 -32 0 -20 31 -42 24 -42 -13z"/>
<path d="M2947 239 c-4 -13 -7 -54 -7 -91 l0 -68 -1470 0 c-1568 0 -1502 2
-1449 -46 21 -19 22 -19 15 1 -5 16 -2 21 14 21 11 0 20 -5 20 -11 0 -5 5 -3
10 5 8 13 10 12 10 -2 0 -20 15 -24 25 -8 3 5 17 10 31 10 14 0 22 -4 19 -10
-3 -6 -1 -10 4 -10 6 0 11 7 11 16 0 8 5 12 10 9 6 -4 7 -11 4 -17 -4 -7 0 -7
12 0 29 15 113 21 118 8 2 -6 5 -4 5 4 1 12 3 13 10 1 6 -9 14 -10 22 -5 19
12 52 11 61 -1 5 -7 11 -6 15 1 5 7 50 10 120 10 91 -1 113 -4 113 -15 0 -11
3 -10 13 3 10 14 19 16 38 10 13 -4 29 -7 34 -5 33 10 95 10 95 0 0 -8 4 -8
13 -1 12 10 137 12 137 2 0 -4 15 -4 34 -2 27 3 35 0 39 -15 4 -15 5 -15 6 4
1 18 7 21 39 20 20 0 40 -5 44 -11 5 -8 11 -7 20 2 18 18 31 15 25 -8 -3 -11
-1 -20 4 -20 5 0 9 9 9 20 0 11 5 20 10 20 6 0 10 -5 10 -11 0 -6 5 -7 13 -2
24 15 50 14 43 -2 -3 -8 -1 -15 4 -15 6 0 10 7 10 16 0 13 3 14 13 5 10 -8 17
-7 25 1 9 9 12 9 12 0 0 -9 5 -10 18 -4 20 11 45 5 36 -9 -3 -5 -1 -9 4 -9 6
0 12 7 16 15 7 19 36 19 36 0 0 -8 5 -15 10 -15 6 0 10 6 10 13 0 8 18 12 55
12 30 0 55 -4 55 -8 0 -5 6 -5 13 0 6 4 31 8 55 9 36 0 42 -2 42 -19 0 -19 14
-16 16 4 1 5 2 12 3 16 0 3 11 -2 23 -13 17 -15 20 -16 16 -3 -10 26 83 20 99
-6 12 -20 12 -20 13 0 0 20 6 20 526 19 613 -2 564 -11 563 104 0 37 -4 76 -8
86 -7 18 -8 18 -14 -5z"/>
<path d="M170 209 c0 -6 -7 -9 -15 -5 -10 3 -15 -1 -15 -13 0 -11 -6 -22 -12
-25 -10 -5 -10 -7 0 -12 6 -3 12 -11 12 -17 0 -7 11 -17 25 -24 14 -6 25 -7
25 -2 0 5 9 9 21 9 12 0 18 4 13 11 -3 6 -1 15 7 19 9 6 10 12 2 22 -6 7 -12
18 -12 23 -1 6 -5 10 -10 10 -5 0 -13 3 -17 8 -11 11 -24 9 -24 -4z m30 -34
c15 -17 5 -35 -20 -35 -22 0 -33 23 -17 39 15 15 22 14 37 -4z"/>
<path d="M347 202 c-19 -21 -21 -45 -7 -73 15 -28 74 -26 94 3 21 30 20 44 -4
68 -25 25 -62 26 -83 2z m67 -11 c21 -23 18 -49 -6 -65 -40 -25 -80 44 -42 71
23 17 28 17 48 -6z"/>
<path d="M2770 120 c0 -15 5 -20 18 -18 9 2 17 10 17 18 0 8 -8 16 -17 18 -13
2 -18 -3 -18 -18z"/>
</g>
</svg>
